<svg id="Ebene_1" data-name="Ebene 1" xmlns="http://www.w3.org/2000/svg" viewBox="0 0 933 525"><defs><filter id="filter-62" x="-50" y="-50" width="200" height="200"><feOffset result="shadowOffsetOuter1" dx="1" in="SourceAlpha"/><feGaussianBlur result="shadowBlurOuter1" stdDeviation="1" in="shadowOffsetOuter1"/></filter></defs><title>Worldmap en</title><g id="Homepage"><g id="Worldmap-en"><g id="worldmap"><g id="endlos-worldmap"><g id="Worldmap-2" data-name="Worldmap"><g opacity=".2" filter="url(#filter-62)"><path id="path-1" d="M260.57 234.34v-9h-.07l13.35-11.2v-3.06l6.57-5.52h6.79l-.15-.15 9.14-7.61v-6.19l9.14-7.69v-8.06l-2.57-2.24h-2.71l-4.79-4.18v-3.36h-.07l-2.78-2.46v-4.33l-5.36-4.7v.07l-2.43 2.09v1.94l-3.78 3.14-5.28-4.63v-5.7h-3.07l-5.64-4.93h-7.93l-2.64 2.24v3.73l1.35 1.12v2.09l-3.42 2.84v2.09l4.21 3.65v7.39h-4l-3.35 2.91v.08l2.85 2.54v10.44l-8.35-7.31v-7.24h-6.36l-4.28-3.73h-6.43L217 159.26v-4.4l31.2-26.2v-3.43l-4.28-3.81h-56.18l-3.43 2.91v.08h-16.92l-8.64-7.54H148l-4.28-3.73H130l-6.85 5.74v.12h-11.5v-.23l-4.31-3.77h-23l-4.28-3.73H56.93l-11.93 10v.15l6.78 6h2.57l2.43 2.09h-7l-4.78 4V136l3.64 3.2h11.93l-3.79 3.21H52l-7 5.9v1.34l11.21 9.85v.23h13.71L52 174.78h5.64l27.7-23.28h6.72l4.42 3.95h10.21L145 189v32.69l1.64 1.49h.07v4.18l7.43 6.57v2.61l9.71 8.58v4.18l3.57 3.14v2.83l6.78 5.9v2.16l6.14 5.38v-4h-.07L177.1 262v-2l-3.57-3.06v-2.17l-5.36-4.7v-6.34l5.36 4.7v3.21l7.14 6.2v3l9.14 8.06v7.91h.07l6.14 5.45v.08h4.71l5.43 4.77h11.14l7.71 6.79h5l17.14 15 3-2.46h3.92v.08L257 304h-9.64l-5.5-4.85v-11.52H230v-6.79l5.93-5v-4.63h-6.43l-11.21 9.33v.22l-9.14-8.06v-15.52l8.14-6.79h24.56l3.22 2.83v6.12l4.57 4v-13.55l-2.43-2.16v-2.47L260.57 234" fill-rule="evenodd"/></g><path d="M260.57 234.34v-9h-.07l13.35-11.2v-3.06l6.57-5.52h6.79l-.15-.15 9.14-7.61v-6.19l9.14-7.69v-8.06l-2.57-2.24h-2.71l-4.79-4.18v-3.36h-.07l-2.78-2.46v-4.33l-5.36-4.7v.07l-2.43 2.09v1.94l-3.78 3.14-5.28-4.63v-5.7h-3.07l-5.64-4.93h-7.93l-2.64 2.24v3.73l1.35 1.12v2.09l-3.42 2.84v2.09l4.21 3.65v7.39h-4l-3.35 2.91v.08l2.85 2.54v10.44l-8.35-7.31v-7.24h-6.36l-4.28-3.73h-6.43L217 159.26v-4.4l31.2-26.2v-3.43l-4.28-3.81h-56.18l-3.43 2.91v.08h-16.92l-8.64-7.54H148l-4.28-3.73H130l-6.85 5.74v.12h-11.5v-.23l-4.31-3.77h-23l-4.28-3.73H56.93l-11.93 10v.15l6.78 6h2.57l2.43 2.09h-7l-4.78 4V136l3.64 3.2h11.93l-3.79 3.21H52l-7 5.9v1.34l11.21 9.85v.23h13.71L52 174.78h5.64l27.7-23.28h6.72l4.42 3.95h10.21L145 189v32.69l1.64 1.49h.07v4.18l7.43 6.57v2.61l9.71 8.58v4.18l3.57 3.14v2.83l6.78 5.9v2.16l6.14 5.38v-4h-.07L177.1 262v-2l-3.57-3.06v-2.17l-5.36-4.7v-6.34l5.36 4.7v3.21l7.14 6.2v3l9.14 8.06v7.91h.07l6.14 5.45v.08h4.71l5.43 4.77h11.14l7.71 6.79h5l17.14 15 3-2.46h3.92v.08L257 304h-9.64l-5.5-4.85v-11.52H230v-6.79l5.93-5v-4.63h-6.43l-11.21 9.33v.22l-9.14-8.06v-15.52l8.14-6.79h24.56l3.22 2.83v6.12l4.57 4v-13.55l-2.43-2.16v-2.47L260.57 234" fill="#f6f6f6" fill-rule="evenodd"/><g opacity=".2" filter="url(#filter-62)"><path id="path-3" d="M249.16 84.42L290 50v-4.15h-41.33l-4.13 3.43h-16.66l-16.16 13.58 12 10.59-2.85 2.39v12.24l4.38 3.92h23.92z" fill-rule="evenodd"/></g><path d="M249.16 84.42L290 50v-4.15h-41.33l-4.13 3.43h-16.66l-16.16 13.58 12 10.59-2.85 2.39v12.24l4.38 3.92h23.92z" fill="#f6f6f6" fill-rule="evenodd"/><g opacity=".2" filter="url(#filter-62)"><path id="path-5" d="M208 108.71l5-3.87v-5.17l-4.73-3.79h-4.8l-5.86 4.52z" fill-rule="evenodd"/></g><path d="M208 108.71l5-3.87v-5.17l-4.73-3.79h-4.8l-5.86 4.52z" fill="#f6f6f6" fill-rule="evenodd"/><g opacity=".2" filter="url(#filter-62)"><path id="path-7" d="M202.39 89.46h6.77v-6.41H198.9v3.45l3.56 3z" fill-rule="evenodd"/></g><path d="M202.39 89.46h6.77v-6.41H198.9v3.45l3.56 3z" fill="#f6f6f6" fill-rule="evenodd"/><g opacity=".2" filter="url(#filter-62)"><path id="path-9" d="M201.44 77.92l2.56-2.33-7.19-6.65H190l-2.66 2.32 7.19 6.66z" fill-rule="evenodd"/></g><path d="M201.44 77.92l2.56-2.33-7.19-6.65H190l-2.66 2.32 7.19 6.66z" fill="#f6f6f6" fill-rule="evenodd"/><g opacity=".2" filter="url(#filter-62)"><path id="path-11" d="M233.07 97.16l-4.68 4.06v10.59l4.39 3.91h24.07l10.75 9.62v7.44l-3.75 3.16v.15L280.63 151l6.58-5.56v-4.21l-7.79-6.91v-3.23h2.41l5.38 4.81h5.31v-4.29L253.8 97.16z" fill-rule="evenodd"/></g><path d="M233.07 97.16l-4.68 4.06v10.59l4.39 3.91h24.07l10.75 9.62v7.44l-3.75 3.16v.15L280.63 151l6.58-5.56v-4.21l-7.79-6.91v-3.23h2.41l5.38 4.81h5.31v-4.29L253.8 97.16z" fill="#f6f6f6" fill-rule="evenodd"/><g opacity=".2" filter="url(#filter-62)"><path id="path-13" d="M243.1 269.06l-3.16 3h2.74l1.61-1.5h2l.84.83h2l2.67 2.61h1.76l4.07 4.07h4.92l1.75-1.58h-3.79l-5.83-5.82h-2.1v.09l-1.69-1.67z" fill-rule="evenodd"/></g><path d="M243.1 269.06l-3.16 3h2.74l1.61-1.5h2l.84.83h2l2.67 2.61h1.76l4.07 4.07h4.92l1.75-1.58h-3.79l-5.83-5.82h-2.1v.09l-1.69-1.67z" fill="#f6f6f6" fill-rule="evenodd"/><g opacity=".2" filter="url(#filter-62)"><path id="path-15" d="M383.57 134.51l9.74 8.83h5.11l1.61-1.43h1.82l1.61-1.36h2.38l2.1-1.89v-4l-3.57-3.24h-4.13l-1.61 1.36v.07h-7.92l-2.58-2.34v.08z" fill-rule="evenodd"/></g><path d="M383.57 134.51l9.74 8.83h5.11l1.61-1.43h1.82l1.61-1.36h2.38l2.1-1.89v-4l-3.57-3.24h-4.13l-1.61 1.36v.07h-7.92l-2.58-2.34v.08z" fill="#f6f6f6" fill-rule="evenodd"/><g opacity=".2" filter="url(#filter-62)"><path id="path-17" d="M677 324.31v3.23h-.07l3.75 3.23v3.83l9.87 8.63v.23l3.38-2.78v-5.11h-.07l-5.55-4.8v-2.1L671.6 314l-3.32 2.78z" fill-rule="evenodd"/></g><path d="M677 324.31v3.23h-.07l3.75 3.23v3.83l9.87 8.63v.23l3.38-2.78v-5.11h-.07l-5.55-4.8v-2.1L671.6 314l-3.32 2.78z" fill="#f6f6f6" fill-rule="evenodd"/><g opacity=".2" filter="url(#filter-62)"><path id="path-19" d="M694.36 342.25l-1.71 1.29 2.28 1.95h2.28l1.78 1.44h5.77l2 1.66H717v-.65l-1.93-1.66h-2.92l-1.92-1.65h-1.78l-1.91-1.63h-1.28v1.15h-4.63l-2.28-1.95z" fill-rule="evenodd"/></g><path d="M694.36 342.25l-1.71 1.29 2.28 1.95h2.28l1.78 1.44h5.77l2 1.66H717v-.65l-1.93-1.66h-2.92l-1.92-1.65h-1.78l-1.91-1.63h-1.28v1.15h-4.63l-2.28-1.95z" fill="#f6f6f6" fill-rule="evenodd"/><g opacity=".2" filter="url(#filter-62)"><path id="path-21" d="M741.61 303.69l-6.61 4.84v.07l5.36 4.07L744 310v-4.56h-.08z" fill-rule="evenodd"/></g><path d="M741.61 303.69l-6.61 4.84v.07l5.36 4.07L744 310v-4.56h-.08z" fill="#f6f6f6" fill-rule="evenodd"/><g opacity=".2" filter="url(#filter-62)"><path id="path-23" d="M735.11 292.15h-1.85l-.71.54h-.14l5.2 4.85v2.35l-1 .94-3.85-3.6v4.23l3.78 3.44v.1l3.56-3.21v-5z" fill-rule="evenodd"/></g><path d="M735.11 292.15h-1.85l-.71.54h-.14l5.2 4.85v2.35l-1 .94-3.85-3.6v4.23l3.78 3.44v.1l3.56-3.21v-5z" fill="#f6f6f6" fill-rule="evenodd"/><g opacity=".2" filter="url(#filter-62)"><path id="path-25" d="M732.41 280.6h-5.13v8.62l3.22 2.93v-4.92l1.91-1.64z" fill-rule="evenodd"/></g><path d="M732.41 280.6h-5.13v8.62l3.22 2.93v-4.92l1.91-1.64z" fill="#f6f6f6" fill-rule="evenodd"/><g opacity=".2" filter="url(#filter-62)"><path id="path-27" d="M720.35 310.1L706 322.6l.13-.14h-4.43v4.64l-.07.07 3 2.7V335h10.47v3.37l4.78-4.2v-4.19l2.29-2V326l2.56-2.24-2.84-2.47v-2h-.07l1.6-1.35V313l-3-2.77z" fill-rule="evenodd"/></g><path d="M720.35 310.1L706 322.6l.13-.14h-4.43v4.64l-.07.07 3 2.7V335h10.47v3.37l4.78-4.2v-4.19l2.29-2V326l2.56-2.24-2.84-2.47v-2h-.07l1.6-1.35V313l-3-2.77z" fill="#f6f6f6" fill-rule="evenodd"/><g opacity=".2" filter="url(#filter-62)"><path id="path-29" d="M724.88 297.28v3l-4 3.54v2.47l5.12-4.57v-3.4z" fill-rule="evenodd"/></g><path d="M724.88 297.28v3l-4 3.54v2.47l5.12-4.57v-3.4z" fill="#f6f6f6" fill-rule="evenodd"/><g opacity=".2" filter="url(#filter-62)"><path id="path-31" d="M728.17 326.85v3l-2.18 1.8V339l3.64 3.23v-7l1.88 1.65v3.08h3.27v-3.3l-3.2-2.78-.07.07v-.15l.07.08 4.21-3.46h-3.41l-1.67 1.35-1.74-1.5v-1.88l.07-.07 1.09-.9h9.08l2.17-1.88h-11.54z" fill-rule="evenodd"/></g><path d="M728.17 326.85v3l-2.18 1.8V339l3.64 3.23v-7l1.88 1.65v3.08h3.27v-3.3l-3.2-2.78-.07.07v-.15l.07.08 4.21-3.46h-3.41l-1.67 1.35-1.74-1.5v-1.88l.07-.07 1.09-.9h9.08l2.17-1.88h-11.54z" fill="#f6f6f6" fill-rule="evenodd"/><g opacity=".2" filter="url(#filter-62)"><path id="path-33" d="M772.22 230.15h-3.32v-.08l-4.81 4.09h-4.24l-8.13 7v4h-.07l2.26 2 9.26-7.94H767v.07l2.83-2.5H776l2-1.66v-6.88l1.91-1.67v-6.88l-2.19-2-2 1.74v6.43l-3.33 2.88h-.07z" fill-rule="evenodd"/></g><path d="M772.22 230.15h-3.32v-.08l-4.81 4.09h-4.24l-8.13 7v4h-.07l2.26 2 9.26-7.94H767v.07l2.83-2.5H776l2-1.66v-6.88l1.91-1.67v-6.88l-2.19-2-2 1.74v6.43l-3.33 2.88h-.07z" fill="#f6f6f6" fill-rule="evenodd"/><g opacity=".2" filter="url(#filter-62)"><path id="path-35" d="M788.08 208.72h-2.34l-4.67-3.8-1.36 1v4.38l-3.17 2.41h-1.81v2.12l2 1.61h.9l2.87-2.26h4.6l5-3.88z" fill-rule="evenodd"/></g><path d="M788.08 208.72h-2.34l-4.67-3.8-1.36 1v4.38l-3.17 2.41h-1.81v2.12l2 1.61h.9l2.87-2.26h4.6l5-3.88z" fill="#f6f6f6" fill-rule="evenodd"/><g opacity=".2" filter="url(#filter-62)"><path id="path-37" d="M782.56 198.6v-4.33l1.34-1.09h1.34l2.31 2V193l-1.64-1.47v-5l-1.64-1.39v-8.44l-3.13 2.63v24.31l2.83-2.32v-1.47l-1.41-1.24z" fill-rule="evenodd"/></g><path d="M782.56 198.6v-4.33l1.34-1.09h1.34l2.31 2V193l-1.64-1.47v-5l-1.64-1.39v-8.44l-3.13 2.63v24.31l2.83-2.32v-1.47l-1.41-1.24z" fill="#f6f6f6" fill-rule="evenodd"/><g opacity=".2" filter="url(#filter-62)"><path id="path-39" d="M791.82 345.88v-.14l2.61-2.14h.07l-2.9-2.6v.08h-2l-6.36-5.52h-3.82l-3-2.58h-3.75v-.15l-2.47-2.13h-1.35l-5.23 4.34-2.61-2.28v-3.39h-1.84l-1.56-1.32h-1.34l-2.12 1.77v.88l2.12 1.84H759l1.34 1.18h-4.6l3.61 3.16h1.91l1.62 1.4h2.34l7.06 6.19h.07v.07l-.07-.07-3.53 2.94h6.5l3.61 3.17h3.32v-.07l4.24-3.61h.07l6.29 5.52h6.37v-.22z" fill-rule="evenodd"/></g><path d="M791.82 345.88v-.14l2.61-2.14h.07l-2.9-2.6v.08h-2l-6.36-5.52h-3.82l-3-2.58h-3.75v-.15l-2.47-2.13h-1.35l-5.23 4.34-2.61-2.28v-3.39h-1.84l-1.56-1.32h-1.34l-2.12 1.77v.88l2.12 1.84H759l1.34 1.18h-4.6l3.61 3.16h1.91l1.62 1.4h2.34l7.06 6.19h.07v.07l-.07-.07-3.53 2.94h6.5l3.61 3.17h3.32v-.07l4.24-3.61h.07l6.29 5.52h6.37v-.22z" fill="#f6f6f6" fill-rule="evenodd"/><g opacity=".2" filter="url(#filter-62)"><path id="path-41" d="M721.91 379l-11.3 9.47v10.28l4.29 3.81v4.84l2.14 1.87v4.84l-2.21 1.89 4.29 3.8h.07l2.21-1.94h6.73l2.29-1.86h5.5l5.79-4.85h16.38l7.73 6.78 2.07-1.71-.07.15 6 5.22v3.5l4.93 4.25h15.73v.07l4-3.35v-4.86l2.64-2.23v-4.18l4.44-3.65v-5.82l1.14-1v-11.89h.07L790.2 378v-5.52l-2.43-2.09v-4.25l-4.86-4.25V357l-2.29-2-2.43 2v14.46l-1.22 1h-1.86l-4.22-3.65h-3.29l-3.79-3.36 2.36-2h.07v-3.06l-3.86-3.39h-4.86l-7.65 6.41h-4.72L726.48 379z" fill-rule="evenodd"/></g><path d="M721.91 379l-11.3 9.47v10.28l4.29 3.81v4.84l2.14 1.87v4.84l-2.21 1.89 4.29 3.8h.07l2.21-1.94h6.73l2.29-1.86h5.5l5.79-4.85h16.38l7.73 6.78 2.07-1.71-.07.15 6 5.22v3.5l4.93 4.25h15.73v.07l4-3.35v-4.86l2.64-2.23v-4.18l4.44-3.65v-5.82l1.14-1v-11.89h.07L790.2 378v-5.52l-2.43-2.09v-4.25l-4.86-4.25V357l-2.29-2-2.43 2v14.46l-1.22 1h-1.86l-4.22-3.65h-3.29l-3.79-3.36 2.36-2h.07v-3.06l-3.86-3.39h-4.86l-7.65 6.41h-4.72L726.48 379z" fill="#f6f6f6" fill-rule="evenodd"/><g opacity=".2" filter="url(#filter-62)"><path id="path-43" d="M851.84 438.35l-11.7 10.18v3.19l3.69 3.34 6.1-5.36v-3.35l6.88-6v-3.25l-2.81-2.56h-2.13z" fill-rule="evenodd"/></g><path d="M851.84 438.35l-11.7 10.18v3.19l3.69 3.34 6.1-5.36v-3.35l6.88-6v-3.25l-2.81-2.56h-2.13z" fill="#f6f6f6" fill-rule="evenodd"/><g opacity=".2" filter="url(#filter-62)"><path id="path-45" d="M858.52 434.22l-.88.81v2.07h3.26v-3l1.9-1.48-.07-1.55 3.06-2.66v-3l-1 .89h-3.4l-4.55-4.22v-3h-2.58v3.18l4 3.62v1.33l-2.85 2.44v1.63z" fill-rule="evenodd"/></g><path d="M858.52 434.22l-.88.81v2.07h3.26v-3l1.9-1.48-.07-1.55 3.06-2.66v-3l-1 .89h-3.4l-4.55-4.22v-3h-2.58v3.18l4 3.62v1.33l-2.85 2.44v1.63z" fill="#f6f6f6" fill-rule="evenodd"/><g opacity=".2" filter="url(#filter-62)"><path id="path-47" d="M473 228l-.89.67h-.06l3.75 3.17h2.66V228z" fill-rule="evenodd"/></g><path d="M473 228l-.89.67h-.06l3.75 3.17h2.66V228z" fill="#f6f6f6" fill-rule="evenodd"/><g opacity=".2" filter="url(#filter-62)"><path id="path-49" d="M893.61 131l-3.61-3.12h-6.71l-10.72-9.35h-6.71l-4.35-3.82h-13.82l-3.57 3.07-2.57-2.17H825.7l-5.78-5.09h-16.28l-8.57-7.52H776.5l-5.43 4.57h-17.92l-11.64-10.22h-34.92l-5.43 4.56H693l18-15.11-5-4.64h-11.41l-4.93-4.56-9 7.55h-17.5L649.89 96.3l-14.78.08-13.29 11.07-8.28.08v-6.59h-5.64l-7.78 6.51v5l4.57 4V124l-9.14-8.08H586l-.07 3.29h-18.8l-7.57 6.36h-4.5l-4.36-3.89h-3.07v6.06L545 130h-2.86l-9.07 7.64-7.07-6.09h9.29l4.5-3.82.07-2-4.93-4.34h-3.5l-4.94-4.39h-4.92l-5-4.41h-22.71l-21.64 18.21v2.84l-17.71 14.89v11.08l2.93 2.54h4.28l5-4.26h1.86v5l4.28 3.82.15 4.79h3.21l5.86-5v-6.43l5.07-4.27-3.5-2.77v-6.36l8.78-7.26v-2.84l3.71-3.14h6.36v3.14l-9.21 7.71v7.26l3.28 2.92 6.36.22v2.25L492.07 166l.07 7.26-2.5 2h-3.57V174h-3l-3.28 2.76h-3.86l-1.14-1h-2.57l-1.21 1-2.43-.07-2.93-2.55v-3l1.22-1v-4.79h-4l-1.15 1.05v7.18l1.36 1.2v3l-1.21 1h-5.22l-10.85 9.13V191h-3.43l-3.37 2.8h-4.79l-2.43 2 2.64 2.4h2.43v2.09l2.43 2.17.07 6.89-2.43 2H430l-1.77-1.35h-5.49l-2.93 2.47v1.19l1.5 1.42v5.32l-1.15 1 .07 4.27 1.22 1-.14 2.85h4.5l1.64 1.49.07 1.28 1.93.15 1.71-1.43H436l3-2.54h1.5V223l3.14-2.61v-1.58l3.07-2.62h2.93v-3.44l2.07-1.79h2.93l1.14 1h1.5l4.42-3.67h2.93l1.86 1.65v1.87l6.21 5.46 3.86 2.92 3.42 2.39v3l-1.21 1 1.79.6 1.21-1v-1.35l1.57-1.27-1.71-1.58v-1l1.93-.75 1.78 1.5 1.07-1-2.41-2.24-13-10.17v-3.52l1.64-1.35h2.14l13.93 12.8v4.27l3.43 3.21v4.42l3.42 3.14 1.93-.9v-3.29l1-2.92-2.42-2.18v-1.87h3l1.86-1.57h1.93l1.57 1.42 4.64-3.89v-5l.93-.82v-3l1-.82h1.5v-2.1l4-3.37 1.57 1.42h6.33l3.16-1.49h2.15l2-1.72h4.14l-2 1.72h-2.07v2.17l-2.07 1.64h-4.07l-1.58-1.4-1.28-.92-1.23.92-1.77 1.4 3.64 3.14 2.15-1.79 2.52-1.35.55 1.35 2.35 1.2h2.36l7.71 6.81V216l-1.78 1.5h-10.64l-3-2.62-5.57.07-3.07 2.57h-6.86l-4.5 3.81v4.79l7.07 6.21h15v8.83L520 247.6l-3.5-2.92h-15.36l-3.57-3.07h-3.92l-5.86 5-5.86-.15-5.57-4.86h-6l-4.57-4 3.07-2.62v-2.58l-1.57-1.34h-21.7l-3.07 2.62h-13.14l-3.07 2.54v1.65l-7.22 6.06v5.76L406.81 260v4.87l-5.71 4.79v3.06l1.5 1.35-.07 13-2.79 2.4 1.93 1.72v4.94l23.21 20.42 2.5-2.17h17.71l4.92-4.11 15.43 13.54v9.88l4.78 4.26.07 4.42 2.07 1.87v7.78l2.07 1.87v3.59l-2.42 2.1v5.09l-2.36 2v7.18l2.93 2.54v3.07l3.14 2.77v6.51l2.22 1.95v6.58l6.64 5.84v10l5.07 4.49 1.57-1.5h10.07l1.57-1.27h3.28l9.36-7.83v-3.45l4.71-4V394l6-5.09v-12.3l13.42-11.3-.14-11.38-3.43-3v-11.37L537 336l3.07-2.62v-2.76l19.07-16v-2.82l4.92-4.19v-7.26h-13.79l-14.42-12.64v-4.64l-5.14-4.57v-6.95l-3.57-3.07V265l-3.5-3.15v-5.23h3.78l3.58 3.18v6l3.65 3.06V273l10.28 9v11.82h6.71l5.78-4.86h6.72l5.78-4.87h3.43l7.42-6.21v-2.69l4.15-3.59v-1.27l-10.14-9-4.86 4h-4.57l-4.64-4.12v-3.29l-4.57-4.12V251l2.71-2.32 5 4.34v1.87l4.5 4h5.21l1.93-1.57h2.43v1.79l3.07 2.7h18.5l8.92 7.93h-2.5l5.43 4.79h4.14V284l2.07 1.8v3.74l2.07 1.8v3.29l2 1.79v2.1l1.36 1.12v3.52l3.57 3.29 5.93-5.69v-12.9l19.35-16.24 8-.07 7.35 6.51v8.15h3.21l2.86-2.47v3.6l2.07 1.79v3.52l1.43 1.27v13l3.43 3v3l1.71 1.49v2.85l8.86 7.78v-3.37L689 320l-.14-6.36-4.86-4.23h-1.57l-1.07-1-.14-3.15-2.22-1.84v-7.55l2.35-1.95 10.22 7.78v3.74l10.07-8.3v-8l-7.57-6.58v-4.49l7.71-6.51h9.57l3.64-3.07h3l12.85-10.78v-16.09l-5.07-4.42v-1.12l8.57-7.18h-8.28l-3.79-3.3 8.57-7.18 4.07 3.59h5.5v5.24l3.21 2.84v7.34h2.72l4.57-3.89v-3.6l-2.29-2v-2.34l-3.21-2.84 5.42-4.64.08-2 4.57-3.82H761l10.72-9.05-.08-3.82 6.07-5.08v-15.14l-4.07-3.59h-5.5l-2.57-2.25 19-16h26.28l10.71-9h11.21v3.37l-19.06 15.79V181l1.28 1.12v5.46l8.93-7.48v-4.49l5.85-4.94.15-11 7.35-6.21H852l8.93-7.48h8.71v-4.72l-3.79-3.14v-2h4.57L874 133h5.57l5.72 5.09z" fill-rule="evenodd"/></g><path d="M893.61 131l-3.61-3.12h-6.71l-10.72-9.35h-6.71l-4.35-3.82h-13.82l-3.57 3.07-2.57-2.17H825.7l-5.78-5.09h-16.28l-8.57-7.52H776.5l-5.43 4.57h-17.92l-11.64-10.22h-34.92l-5.43 4.56H693l18-15.11-5-4.64h-11.41l-4.93-4.56-9 7.55h-17.5L649.89 96.3l-14.78.08-13.29 11.07-8.28.08v-6.59h-5.64l-7.78 6.51v5l4.57 4V124l-9.14-8.08H586l-.07 3.29h-18.8l-7.57 6.36h-4.5l-4.36-3.89h-3.07v6.06L545 130h-2.86l-9.07 7.64-7.07-6.09h9.29l4.5-3.82.07-2-4.93-4.34h-3.5l-4.94-4.39h-4.92l-5-4.41h-22.71l-21.64 18.21v2.84l-17.71 14.89v11.08l2.93 2.54h4.28l5-4.26h1.86v5l4.28 3.82.15 4.79h3.21l5.86-5v-6.43l5.07-4.27-3.5-2.77v-6.36l8.78-7.26v-2.84l3.71-3.14h6.36v3.14l-9.21 7.71v7.26l3.28 2.92 6.36.22v2.25L492.07 166l.07 7.26-2.5 2h-3.57V174h-3l-3.28 2.76h-3.86l-1.14-1h-2.57l-1.21 1-2.43-.07-2.93-2.55v-3l1.22-1v-4.79h-4l-1.15 1.05v7.18l1.36 1.2v3l-1.21 1h-5.22l-10.85 9.13V191h-3.43l-3.37 2.8h-4.79l-2.43 2 2.64 2.4h2.43v2.09l2.43 2.17.07 6.89-2.43 2H430l-1.77-1.35h-5.49l-2.93 2.47v1.19l1.5 1.42v5.32l-1.15 1 .07 4.27 1.22 1-.14 2.85h4.5l1.64 1.49.07 1.28 1.93.15 1.71-1.43H436l3-2.54h1.5V223l3.14-2.61v-1.58l3.07-2.62h2.93v-3.44l2.07-1.79h2.93l1.14 1h1.5l4.42-3.67h2.93l1.86 1.65v1.87l6.21 5.46 3.86 2.92 3.42 2.39v3l-1.21 1 1.79.6 1.21-1v-1.35l1.57-1.27-1.71-1.58v-1l1.93-.75 1.78 1.5 1.07-1-2.41-2.24-13-10.17v-3.52l1.64-1.35h2.14l13.93 12.8v4.27l3.43 3.21v4.42l3.42 3.14 1.93-.9v-3.29l1-2.92-2.42-2.18v-1.87h3l1.86-1.57h1.93l1.57 1.42 4.64-3.89v-5l.93-.82v-3l1-.82h1.5v-2.1l4-3.37 1.57 1.42h6.33l3.16-1.49h2.15l2-1.72h4.14l-2 1.72h-2.07v2.17l-2.07 1.64h-4.07l-1.58-1.4-1.28-.92-1.23.92-1.77 1.4 3.64 3.14 2.15-1.79 2.52-1.35.55 1.35 2.35 1.2h2.36l7.71 6.81V216l-1.78 1.5h-10.64l-3-2.62-5.57.07-3.07 2.57h-6.86l-4.5 3.81v4.79l7.07 6.21h15v8.83L520 247.6l-3.5-2.92h-15.36l-3.57-3.07h-3.92l-5.86 5-5.86-.15-5.57-4.86h-6l-4.57-4 3.07-2.62v-2.58l-1.57-1.34h-21.7l-3.07 2.62h-13.14l-3.07 2.54v1.65l-7.22 6.06v5.76L406.81 260v4.87l-5.71 4.79v3.06l1.5 1.35-.07 13-2.79 2.4 1.93 1.72v4.94l23.21 20.42 2.5-2.17h17.71l4.92-4.11 15.43 13.54v9.88l4.78 4.26.07 4.42 2.07 1.87v7.78l2.07 1.87v3.59l-2.42 2.1v5.09l-2.36 2v7.18l2.93 2.54v3.07l3.14 2.77v6.51l2.22 1.95v6.58l6.64 5.84v10l5.07 4.49 1.57-1.5h10.07l1.57-1.27h3.28l9.36-7.83v-3.45l4.71-4V394l6-5.09v-12.3l13.42-11.3-.14-11.38-3.43-3v-11.37L537 336l3.07-2.62v-2.76l19.07-16v-2.82l4.92-4.19v-7.26h-13.79l-14.42-12.64v-4.64l-5.14-4.57v-6.95l-3.57-3.07V265l-3.5-3.15v-5.23h3.78l3.58 3.18v6l3.65 3.06V273l10.28 9v11.82h6.71l5.78-4.86h6.72l5.78-4.87h3.43l7.42-6.21v-2.69l4.15-3.59v-1.27l-10.14-9-4.86 4h-4.57l-4.64-4.12v-3.29l-4.57-4.12V251l2.71-2.32 5 4.34v1.87l4.5 4h5.21l1.93-1.57h2.43v1.79l3.07 2.7h18.5l8.92 7.93h-2.5l5.43 4.79h4.14V284l2.07 1.8v3.74l2.07 1.8v3.29l2 1.79v2.1l1.36 1.12v3.52l3.57 3.29 5.93-5.69v-12.9l19.35-16.24 8-.07 7.35 6.51v8.15h3.21l2.86-2.47v3.6l2.07 1.79v3.52l1.43 1.27v13l3.43 3v3l1.71 1.49v2.85l8.86 7.78v-3.37L689 320l-.14-6.36-4.86-4.23h-1.57l-1.07-1-.14-3.15-2.22-1.84v-7.55l2.35-1.95 10.22 7.78v3.74l10.07-8.3v-8l-7.57-6.58v-4.49l7.71-6.51h9.57l3.64-3.07h3l12.85-10.78v-16.09l-5.07-4.42v-1.12l8.57-7.18h-8.28l-3.79-3.3 8.57-7.18 4.07 3.59h5.5v5.24l3.21 2.84v7.34h2.72l4.57-3.89v-3.6l-2.29-2v-2.34l-3.21-2.84 5.42-4.64.08-2 4.57-3.82H761l10.72-9.05-.08-3.82 6.07-5.08v-15.14l-4.07-3.59h-5.5l-2.57-2.25 19-16h26.28l10.71-9h11.21v3.37l-19.06 15.79V181l1.28 1.12v5.46l8.93-7.48v-4.49l5.85-4.94.15-11 7.35-6.21H852l8.93-7.48h8.71v-4.72l-3.79-3.14v-2h4.57L874 133h5.57l5.72 5.09z" fill="#f6f6f6" fill-rule="evenodd"/><g opacity=".2" filter="url(#filter-62)"><path id="path-51" d="M442.65 186.31l2.48-2.1v-2.69h-3.3l1-.9-1.58-1.42.75-.68h-.07l-3.37-3.07V174l-4-3.59 2.55-2.25v-3.56h-5l3.79-3.3h-5.3l-2 1.72v8.24h2.34v2.32l-1.38 1.2h4.83l-1.59 1.42 1.72 1.57v2.4h-2.13v.07l-1.66 1.35 1.66 1.43h-.14l-1.86 1.64h-.9v1.13h2.35l.69.52h2.2v1h-2.2l-4 3.52h2.89l.9-.82h1.1l1-.83h5l.89-.74h3.45l1.17-1v-1.05z" fill-rule="evenodd"/></g><path d="M442.65 186.31l2.48-2.1v-2.69h-3.3l1-.9-1.58-1.42.75-.68h-.07l-3.37-3.07V174l-4-3.59 2.55-2.25v-3.56h-5l3.79-3.3h-5.3l-2 1.72v8.24h2.34v2.32l-1.38 1.2h4.83l-1.59 1.42 1.72 1.57v2.4h-2.13v.07l-1.66 1.35 1.66 1.43h-.14l-1.86 1.64h-.9v1.13h2.35l.69.52h2.2v1h-2.2l-4 3.52h2.89l.9-.82h1.1l1-.83h5l.89-.74h3.45l1.17-1v-1.05z" fill="#f6f6f6" fill-rule="evenodd"/><g opacity=".2" filter="url(#filter-62)"><path id="path-53" d="M429.74 176.55l-4-3.7-5.14 4.47h-2.4V187h3.94l2.68-2.32h3.09v-6.47z" fill-rule="evenodd"/></g><path d="M429.74 176.55l-4-3.7-5.14 4.47h-2.4V187h3.94l2.68-2.32h3.09v-6.47z" fill="#f6f6f6" fill-rule="evenodd"/><g opacity=".2" filter="url(#filter-62)"><path id="path-55" d="M389.76 74.24l22-18.73h-23.1v-5.43l-7.7-6.8h-33.75v.15l-8.27 7h-28.37l-6 5.06h-12.18l-8.2 7V68h-.14l-3.64 3.09H272l-5 4.23h-.14L279 86h18.25l12.47 11.1V112l6.7 5.89v24.31h-.21l15.61 13.89-.07.08h6.49v-10.5l26.44-22.42h12.26l12.83-10.88z" fill-rule="evenodd"/></g><path d="M389.76 74.24l22-18.73h-23.1v-5.43l-7.7-6.8h-33.75v.15l-8.27 7h-28.37l-6 5.06h-12.18l-8.2 7V68h-.14l-3.64 3.09H272l-5 4.23h-.14L279 86h18.25l12.47 11.1V112l6.7 5.89v24.31h-.21l15.61 13.89-.07.08h6.49v-10.5l26.44-22.42h12.26l12.83-10.88z" fill="#f6f6f6" fill-rule="evenodd"/><g opacity=".2" filter="url(#filter-62)"><path id="path-57" d="M189.92 85.8h-8.72l-7.08-6.6h-16.59l-7.37 6.6v1.88h11l7.3 6.84h9.07v.08l3.4-3h9z" fill-rule="evenodd"/></g><path d="M189.92 85.8h-8.72l-7.08-6.6h-16.59l-7.37 6.6v1.88h11l7.3 6.84h9.07v.08l3.4-3h9z" fill="#f6f6f6" fill-rule="evenodd"/><g opacity=".2" filter="url(#filter-62)"><path id="path-59" d="M151.45 93.31L144 99.44h-.22v5.48l4.32 3.65h11.3l13.75 11.68h8.5l3.45-2.77h13.8v-8.84l-9.07-7.73h-18.36l-8.93-7.6z" fill-rule="evenodd"/></g><path d="M151.45 93.31L144 99.44h-.22v5.48l4.32 3.65h11.3l13.75 11.68h8.5l3.45-2.77h13.8v-8.84l-9.07-7.73h-18.36l-8.93-7.6z" fill="#f6f6f6" fill-rule="evenodd"/><g opacity=".2" filter="url(#filter-62)"><path id="path-61" d="M255.81 322.88l-8.18 6.78v12.46l8.54 7.39v8.2l17.94 15.67V396H274l-3.09 2.53v21.41l-6.1 5.08v25.43l-1.81 1.47v19.77l10.26 9h12l-8.32-7.24v-7.35l3.37-2.76v-1.94l4.67-3.81V456l-3.74-3.21V451l4.6-3.81v-3.06l3.51-2.91h-.14l-2.73-2.38v-3h6.82v-6h8L307 425v-4.25l-3.37-3h6.75l8-6.72v-4.47l7.47-6.19v-7.54l8-6.64h6.89l5.31-4.47v-6.34l3.74-3.06v-12.45l8.1-6.86v-12.53l-9.47-8.35H333l-5.16-4.48h-4.6v-7.23l-9.54-8.36h-7.3l-15.5-13.5h-23.82L255.81 308" fill-rule="evenodd"/></g><path d="M255.81 322.88l-8.18 6.78v12.46l8.54 7.39v8.2l17.94 15.67V396H274l-3.09 2.53v21.41l-6.1 5.08v25.43l-1.81 1.47v19.77l10.26 9h12l-8.32-7.24v-7.35l3.37-2.76v-1.94l4.67-3.81V456l-3.74-3.21V451l4.6-3.81v-3.06l3.51-2.91h-.14l-2.73-2.38v-3h6.82v-6h8L307 425v-4.25l-3.37-3h6.75l8-6.72v-4.47l7.47-6.19v-7.54l8-6.64h6.89l5.31-4.47v-6.34l3.74-3.06v-12.45l8.1-6.86v-12.53l-9.47-8.35H333l-5.16-4.48h-4.6v-7.23l-9.54-8.36h-7.3l-15.5-13.5h-23.82L255.81 308" fill="#f6f6f6" fill-rule="evenodd"/></g></g></g><path id="Countries" d="M63.05 412.2a6.57 6.57 0 0 0 4.45-1.47l-.6-1a6 6 0 0 1-3.8 1.27c-3.1 0-5.1-2-5.1-7.08 0-5.35 2-7.07 5.12-7.07a6.76 6.76 0 0 1 3.48 1.07l.52-1.12a7.08 7.08 0 0 0-4-1.15c-3.75 0-6.5 2.25-6.5 8.27s2.68 8.28 6.4 8.28zm6.6-6.17c0 4.75 2.13 6.17 4.88 6.17 2.37 0 4.87-1.42 4.87-6.17s-2.12-6.18-4.87-6.18c-2.38 0-4.88 1.43-4.88 6.15zm4.88 5.1c-2.38 0-3.55-1.48-3.55-5.1s1.17-5.1 3.55-5.1 3.55 1.47 3.55 5.1-1.18 5.1-3.55 5.1zm8.52-3c0 2.8 1.1 4.07 3.53 4.07 1.9 0 2.8-.85 3.62-2.4l.1 2.35h1.1v-12.1h-1.25v8.05c-.62 1.68-1.8 3-3.32 3s-2.53-.65-2.53-3.22V400h-1.25zM96.3 412h1.25v-8c.5-1.58 1.7-3.08 3.3-3.08 2.18 0 2.63 1.08 2.63 3.46V412h1.25v-8c0-2.9-1.18-4.13-3.78-4.13a3.59 3.59 0 0 0-3.42 2.4l-.08-2.27H96.3zm13.4-2.23a2.25 2.25 0 0 0 2.53 2.43 3.57 3.57 0 0 0 2.72-1.15l-.57-.8a2.77 2.77 0 0 1-1.8.88c-.88 0-1.63-.21-1.63-1.61v-8.37h3.53v-1.1H111v-2.67l-.92.1-.35 2.42-1.55.35v.9h1.52zm8.48 2.23h1.25v-8c.65-1.8 1.65-2.78 2.92-2.78a6.73 6.73 0 0 1 1.23.1l.17-1.32a4 4 0 0 0-1.15-.13 3.58 3.58 0 0 0-3.2 2.5l-.07-2.37h-1.15zm9.12-14.77a.82.82 0 0 0 .9-.93.79.79 0 0 0-.9-.9c-.5 0-.87.2-.87.9s.37.93.87.93zm-.62 14.77h1.25v-11.95h-1.25zm5-6c0 3.43 1.07 6.18 5 6.18a4.84 4.84 0 0 0 3.9-1.78l-.68-.75a3.94 3.94 0 0 1-3 1.38c-2.85 0-3.88-1.63-3.88-5.13h7.33c0-.45.07-1.2.07-1.62 0-2.55-1-4.45-3.77-4.45-3.43 0-4.9 2.62-4.9 6.17zm1.32-1.14c.18-2.58 1.35-4 3.45-4 1.95 0 2.65 1.27 2.65 3.35v.63zm10.25 6.42a7.3 7.3 0 0 0 3.65.9c2.48 0 4.08-1.2 4.08-3.5 0-1.7-1.2-2.53-2.75-3l-1.13-.35c-1.57-.53-2.4-1-2.4-2.38 0-1.65 1.2-2.05 2.55-2.05a6.24 6.24 0 0 1 2.7.73l.45-1.08a6.89 6.89 0 0 0-3-.72c-2.58 0-3.93 1.35-3.93 3.32s1.28 2.73 2.93 3.25l1.27.4c1.43.45 2 .95 2 2.13 0 1.47-1 2.17-2.68 2.17a7.71 7.71 0 0 1-3.32-.87l-.43 1.05z" fill="#ff5800" fill-rule="evenodd"/><path d="M74.65 366.84c1-4.26 3.36-8.82 5.94-14.22a114.86 114.86 0 0 0 5.58-13.26h5.58v.72c-.78 3.48-3.36 9.06-5.52 13.5-2.34 4.86-4.74 9.6-5.34 12.78h9.36v-8.46h5.88v8.46h4.68v5.16h-4.68v6.72h-5.88v-6.72h-15.6zM106.75 358.92c0-14.76 5.1-20 13.14-20 8.28 0 13.14 5.28 13.14 20 0 14.34-5.1 19.92-13.14 19.92-8.22 0-13.14-5.22-13.14-19.92zm19.68 0c0-10.26-1-14.64-6.54-14.64s-6.6 4.08-6.6 14.64c0 10.14 1.14 14.52 6.6 14.52s6.54-4.02 6.54-14.52z" fill="#ff5800"/></g></g><g id="vernetzung" fill="none" stroke="#ff5800" stroke-linecap="square" stroke-width=".5"><path id="Line" d="M196.41 276.6l437.64-10.94m-190.63-71.07l33.34-5.22M458 201.78l-246.7 18.09m220.33-1.19l201.08 47m-213.45-40.39L434 175.45m0 0l27.54-33.36m.66-.81l21.47 8.2m-1.34-1.37l166.47 8.2M309.18 349L475 219.19M309.18 349l110.08-121.61m-153 190l-56.39-196.1m218.63 25.09l29.5-44.6m-11.27 3.6l69 17.26m-30.29-23.73l-3.16-50.8m-5.59 41.26l31.29-47.28M467.9 183.8l-6.34-41.71m-33.1 104.28l88-23m177.26 104.51L737 269.39m-221.17-46l170.28 95.5M482.35 148.11L434 176.82M445 191l15.85-49.67m-41.61 86.11L196.41 276.6M434 175.45l12.4 17.34M419.26 226L445 191m30 26.76l-7.09-15m7.74 16.48v-27.88m0 27.83l-17.95-18.48m231.4 39l-56.38 26M475 219.19L633.41 265m-156.8-76.89l5.74-41.37M475.64 185l213.45 54.67m-55 24.6l13.42-108m-165.06-6.83l153 116.18m-158.4-45.71l-30.63-14.17m0 0L419.26 226m-157 134l4 54.53m-4-55.25l-12-28.77m59.87 18l-59.17-18m176.8-83.43l-145.1 64m232.17-87.91L475 217.71m-212.78 97.71l21.14-4.32M262.22 360l-1.89-43.87m-10.08 13.67l-52.1-53.58M419.26 226l-258.52-64.73m257.17 66.12l269.84 12.3m-479.26-20.5l252.38-76.54m-303.39 17.77l51 60.14m1.34 0L197.75 278m.4-1.74L310.52 349m0 0L211.3 221m-13.55 54.2l68.47 143.52M160.74 159.17L434 175.45m253.73 64.24l-38.93-83.38m0 0L475 217.71m-265.16 2.85l208.08 6.83m-107.4 120.28l323.53-82m127.53 128.47l12.08-161.28m-28.19-.34h28.19m-36.24 35.88l8.05-32.81m-269.83-16.4l22.82 190M685.06 293l-36.25-136.69m38.94 164l-269.84-92.92m267.29 92.7l61-85.87m-60.27 85.87l50.17-50.33m-48.33-30.07l-204.08-90.21m277.89 246l-75.67-75.42m-51.86-55.8L498.46 409.18m0 0L420 227.39m341.58 168.12L196.41 276.6m488.79 43.49l-374.68 27.58m-44.07 69.15l16.2-105.72m135.56-134.31l15.88-.9m-17.43 1.44l15.32 41m-4.23 27.33L432 219m76.07-76.95l140.17 13.67m-140.19-13.63l-22.54 56.82m31.7 23.73L500.3 206.1m-43-18l4.22-45.31m6.34 41.71l-33.1-8.63M647.47 155l126.19 76.54M309.18 349l189.28 60.14M262.22 360l47-11.56m-58.93-17.93l11.27-13.67M251 330.52l-93-169.73M283.36 311.1l132.42-132.33m59.86 40.42l-44.37-.87M501 206.1l-68.87 11.84M261.52 360l21.13-48.91m479 82.29l-24.23-123.62m-48.33-31.43l49.67 31.43m-106-5.47l112.76-30.07m28.19-1.36l-36.24 36.9m0 0L685.06 293m-51-27.34l53.7 54.68M264.87 416l233.59-6.83m-290-190l290 190m186.6-117.55l2.69 30.07m59.07-87.48L481 148.11m204 143.52l4-51.94m48.33 30.07l-103.37-4.1m111.42-31.44L683.72 293m79.2 102.51L685.06 293m60.41-58.78l-57.72 5.47m-202.59-41.14l147.55 65.74m-186.64-59.63l-28.16-26.73m26.75 13.78l-283.92-32m300.82-19.26h46.49m180.32 98.71L763 395.25M264.87 416l17.36 30.8m27.89-97.59l-27.89 97.59"/><path d="M691.89 329.08l-408.53-18M160 160.42l286.77 45M446.07 206.1l-17.61 40.27M418.51 175.72l42.35-33.63m-14.79 51.06l11.27 7.91m-11.45 4.32v-12.95M498 205.27l-30.1-3.67m.71-17.08l48.6 38.84M458 201.06l10.57-16.54m-.71 17.08l-10.4-15.21m42.8 19l7.75-61.85m-245.79 172.6L210.74 221m217.72 25.34l256.39 45.31M265 416.82l251.5-194.18m-33.81-74.8l26.07-5m-40.86 41l179.62-27.33m-131 66.17l131.72-66.17"/></g><g id="Locations" fill="#ff5800"><ellipse id="Russland" cx="648.16" cy="155.63" rx="4.58" ry="4.67"/><ellipse id="Türkei" cx="515.84" cy="222.03" rx="4.58" ry="4.67"/><ellipse id="Finnland" cx="508.47" cy="141.67" rx="4.58" ry="4.67"/><ellipse id="Norwegen" cx="461.56" cy="141.96" rx="4.58" ry="4.67"/><ellipse id="Schweden" cx="482.41" cy="148.15" rx="4.58" ry="4.67"/><ellipse id="UK" cx="434.01" cy="175.41" rx="4.58" ry="4.67"/><ellipse id="Irland" cx="417.11" cy="176.85" rx="4.58" ry="4.67"/><ellipse id="Portugal" cx="420.01" cy="225.98" rx="4.58" ry="4.67"/><ellipse id="Spanien" cx="432.03" cy="217.78" rx="4.58" ry="4.67"/><ellipse id="Frankreich" cx="446.23" cy="204.62" rx="4.58" ry="4.67"/><ellipse id="Italien" cx="474.99" cy="217.71" rx="4.58" ry="4.67"/><ellipse id="Rumänien" cx="497.99" cy="204.47" rx="4.58" ry="4.67"/><path id="Ungarn" d="M486 203.39a4.67 4.67 0 1 0-4.58-4.67 4.62 4.62 0 0 0 4.58 4.67z" fill-rule="evenodd"/><ellipse id="Deutschland" cx="457.74" cy="186.28" rx="4.58" ry="4.67"/><ellipse id="Schweiz" cx="457.74" cy="200.66" rx="4.58" ry="4.67"/><ellipse id="Tschechien" cx="467.7" cy="192.25" rx="4.58" ry="4.67"/><ellipse id="Österreich" cx="467.7" cy="202.32" rx="4.58" ry="4.67"/><ellipse id="Slowakei" cx="476.86" cy="189.37" rx="4.58" ry="4.67"/><ellipse id="Polen" cx="468.67" cy="182.61" rx="4.58" ry="4.67"/><path id="Belgien" d="M445.59 195.63A4.68 4.68 0 1 0 441 191a4.63 4.63 0 0 0 4.59 4.63z" fill-rule="evenodd"/><ellipse id="Indien" cx="634.1" cy="264.26" rx="4.58" ry="4.67"/><ellipse id="China" cx="689.14" cy="239.01" rx="4.58" ry="4.67"/><ellipse id="Japan" cx="774.42" cy="231.45" rx="4.58" ry="4.67"/><ellipse id="Südkorea" cx="746.16" cy="233.47" rx="4.58" ry="4.67"/><path id="Australien" d="M761.57 398.06a4.68 4.68 0 1 0-4.58-4.67 4.62 4.62 0 0 0 4.58 4.67z" fill-rule="evenodd"/><path id="Singapur" d="M693.44 332.16a4.68 4.68 0 1 0-4.58-4.67 4.62 4.62 0 0 0 4.58 4.67z" fill-rule="evenodd"/><ellipse id="Malaysia" cx="685.69" cy="318.86" rx="4.58" ry="4.67"/><ellipse id="Thailand" cx="685.12" cy="290.87" rx="4.58" ry="4.67"/><ellipse id="Taiwan" cx="736.77" cy="269.08" rx="4.58" ry="4.67"/><ellipse id="Marokko" cx="428.47" cy="246.12" rx="4.58" ry="4.67"/><ellipse id="Südafrika" cx="498.52" cy="407.77" rx="4.58" ry="4.67"/><ellipse id="Brasilien" cx="309.87" cy="347.63" rx="4.58" ry="4.67"/><ellipse id="Ecador" cx="250.07" cy="328.95" rx="4.58" ry="4.67"/><ellipse id="Peru" cx="262.75" cy="358.44" rx="4.58" ry="4.67"/><ellipse id="Kolumbien" cx="261.34" cy="315.29" rx="4.58" ry="4.67"/><ellipse id="Venezuela" cx="282.47" cy="310.97" rx="4.58" ry="4.67"/><path id="Chile" d="M266.27 419.21a4.68 4.68 0 1 0-4.58-4.67 4.62 4.62 0 0 0 4.58 4.67z" fill-rule="evenodd"/><ellipse id="Mexiko" cx="198.51" cy="275.91" rx="4.58" ry="4.67"/><ellipse id="USA" cx="211.3" cy="219.87" rx="4.58" ry="4.67"/><ellipse id="Kanada" cx="159.58" cy="160.45" rx="4.58" ry="4.67"/><path id="Argentinien" d="M283.18 449.32a4.68 4.68 0 1 0-4.58-4.67 4.62 4.62 0 0 0 4.58 4.67z" fill-rule="evenodd"/></g></svg>