<?xml version="1.0" encoding="utf-8"?>
<!-- Generator: Adobe Illustrator 27.0.0, SVG Export Plug-In . SVG Version: 6.00 Build 0)  -->
<svg version="1.1" id="Ebene_1" xmlns="http://www.w3.org/2000/svg" xmlns:xlink="http://www.w3.org/1999/xlink" x="0px" y="0px"
	 viewBox="0 0 933 525" style="enable-background:new 0 0 933 525;" xml:space="preserve">
<style type="text/css">
	.st0{opacity:0.2;}
	.st1{fill-rule:evenodd;clip-rule:evenodd;}
	.st2{fill-rule:evenodd;clip-rule:evenodd;fill:#F6F6F6;}
	.st3{fill:none;stroke:#FF5800;stroke-width:0.5;stroke-linecap:square;}
	.st4{fill:#FF5A00;}
	.st5{fill:#FF5800;}
	.st6{opacity:0.92;fill-rule:evenodd;clip-rule:evenodd;fill:#F6F6F6;}
	.st7{fill:#FFFFFF;}
	.st8{font-family:'Montserrat-Regular';}
	.st9{font-size:1.004px;}
	.st10{fill:none;stroke:#FF5A00;stroke-width:0.75;stroke-miterlimit:10;}
</style>
<g id="worldmap_00000029764316138577241890000005447710990978302382_">
	<g id="endlos-worldmap_00000104707284161895559050000004651336023952817831_">
		<g id="Worldmap-2_00000176749814903669813930000016084554843666606512_">
			<g class="st0">
				<path id="path-1_00000152960609665003707010000006882087901367731352_" class="st1" d="M260.6,234.3v-9h-0.1l13.4-11.2v-3.1
					l6.6-5.5h6.8l-0.1-0.1l9.1-7.6v-6.2l9.1-7.7v-8.1l-2.6-2.2h-2.7l-4.8-4.2v-3.4h-0.1l-2.8-2.5v-4.3l-5.4-4.7v0.1l-2.4,2.1v1.9
					l-3.8,3.1l-5.3-4.6v-5.7h-3.1l-5.6-4.9h-7.9l-2.6,2.2v3.7l1.4,1.1v2.1l-3.4,2.8v2.1l4.2,3.6v7.4h-4l-3.4,2.9v0.1l2.9,2.5v10.4
					l-8.4-7.3v-7.2h-6.4l-4.3-3.7h-6.4L217,159.3v-4.4l31.2-26.2v-3.4l-4.3-3.8h-56.2l-3.4,2.9v0.1h-16.9l-8.6-7.5H148l-4.3-3.7H130
					l-6.8,5.7v0.1h-11.5v-0.2l-4.3-3.8h-23l-4.3-3.7H56.9l-11.9,10v0.2l6.8,6h2.6l2.4,2.1h-7l-4.8,4v2.5l3.6,3.2h11.9l-3.8,3.2H52
					l-7,5.9v1.3l11.2,9.9v0.2h13.7L52,174.8h5.6l27.7-23.3h6.7l4.4,3.9h10.2L145,189v32.7l1.6,1.5h0.1v4.2l7.4,6.6v2.6l9.7,8.6v4.2
					l3.6,3.1v2.8l6.8,5.9v2.2l6.1,5.4v-4h-0.1l-3.2-2.7v-2l-3.6-3.1v-2.2l-5.4-4.7v-6.3l5.4,4.7v3.2l7.1,6.2v3l9.1,8.1v7.9h0.1
					l6.1,5.5v0.1h4.7l5.4,4.8h11.1l7.7,6.8h5l17.1,15l3-2.5h3.9v0.1l2.9-2.5h-9.6l-5.5-4.9v-11.5H230v-6.8l5.9-5v-4.6h-6.4
					l-11.2,9.3v0.2l-9.1-8.1v-15.5l8.1-6.8h24.6l3.2,2.8v6.1l4.6,4v-13.6l-2.4-2.2v-2.5l13.4-11.2"/>
			</g>
			<path class="st2" d="M260.6,234.3v-9h-0.1l13.4-11.2v-3.1l6.6-5.5h6.8l-0.1-0.1l9.1-7.6v-6.2l9.1-7.7v-8.1l-2.6-2.2h-2.7
				l-4.8-4.2v-3.4h-0.1l-2.8-2.5v-4.3l-5.4-4.7v0.1l-2.4,2.1v1.9l-3.8,3.1l-5.3-4.6v-5.7h-3.1l-5.6-4.9h-7.9l-2.6,2.2v3.7l1.4,1.1
				v2.1l-3.4,2.8v2.1l4.2,3.6v7.4h-4l-3.4,2.9v0.1l2.9,2.5v10.4l-8.4-7.3v-7.2h-6.4l-4.3-3.7h-6.4L217,159.3v-4.4l31.2-26.2v-3.4
				l-4.3-3.8h-56.2l-3.4,2.9v0.1h-16.9l-8.6-7.5H148l-4.3-3.7H130l-6.8,5.7v0.1h-11.5v-0.2l-4.3-3.8h-23l-4.3-3.7H56.9l-11.9,10v0.2
				l6.8,6h2.6l2.4,2.1h-7l-4.8,4v2.5l3.6,3.2h11.9l-3.8,3.2H52l-7,5.9v1.3l11.2,9.9v0.2h13.7L52,174.8h5.6l27.7-23.3h6.7l4.4,3.9
				h10.2L145,189v32.7l1.6,1.5h0.1v4.2l7.4,6.6v2.6l9.7,8.6v4.2l3.6,3.1v2.8l6.8,5.9v2.2l6.1,5.4v-4h-0.1l-3.2-2.7v-2l-3.6-3.1v-2.2
				l-5.4-4.7v-6.3l5.4,4.7v3.2l7.1,6.2v3l9.1,8.1v7.9h0.1l6.1,5.5v0.1h4.7l5.4,4.8h11.1l7.7,6.8h5l17.1,15l3-2.5h3.9v0.1l2.9-2.5
				h-9.6l-5.5-4.9v-11.5H230v-6.8l5.9-5v-4.6h-6.4l-11.2,9.3v0.2l-9.1-8.1v-15.5l8.1-6.8h24.6l3.2,2.8v6.1l4.6,4v-13.6l-2.4-2.2
				v-2.5l13.4-11.2"/>
			<g class="st0">
				<path id="path-3_00000053506756318563434090000015094224975030598544_" class="st1" d="M249.2,84.4L290,50v-4.2h-41.3l-4.1,3.4
					h-16.7l-16.2,13.6l12,10.6l-2.9,2.4v12.2l4.4,3.9h23.9L249.2,84.4z"/>
			</g>
			<path class="st2" d="M249.2,84.4L290,50v-4.2h-41.3l-4.1,3.4h-16.7l-16.2,13.6l12,10.6l-2.9,2.4v12.2l4.4,3.9h23.9L249.2,84.4z"
				/>
			<g class="st0">
				<path id="path-5_00000038401270186243256690000006432679479848780212_" class="st1" d="M208,108.7l5-3.9v-5.2l-4.7-3.8h-4.8
					l-5.9,4.5L208,108.7z"/>
			</g>
			<path class="st2" d="M208,108.7l5-3.9v-5.2l-4.7-3.8h-4.8l-5.9,4.5L208,108.7z"/>
			<g class="st0">
				<path id="path-7_00000109715170712109546720000009059599628498473374_" class="st1" d="M202.4,89.5h6.8v-6.4h-10.3v3.4
					L202.4,89.5L202.4,89.5z"/>
			</g>
			<path class="st2" d="M202.4,89.5h6.8v-6.4h-10.3v3.4L202.4,89.5L202.4,89.5z"/>
			<g class="st0">
				<path id="path-9_00000103230046033548724640000000247101352877749157_" class="st1" d="M201.4,77.9l2.6-2.3l-7.2-6.7H190
					l-2.7,2.3l7.2,6.7H201.4z"/>
			</g>
			<path class="st2" d="M201.4,77.9l2.6-2.3l-7.2-6.7H190l-2.7,2.3l7.2,6.7H201.4z"/>
			<g class="st0">
				<path id="path-11_00000009587822685389609960000004452055872982118840_" class="st1" d="M233.1,97.2l-4.7,4.1v10.6l4.4,3.9h24.1
					l10.8,9.6v7.4l-3.8,3.2v0.1l16.8,14.9l6.6-5.6v-4.2l-7.8-6.9v-3.2h2.4l5.4,4.8h5.3v-4.3l-38.7-34.4H233.1z"/>
			</g>
			<path class="st2" d="M233.1,97.2l-4.7,4.1v10.6l4.4,3.9h24.1l10.8,9.6v7.4l-3.8,3.2v0.1l16.8,14.9l6.6-5.6v-4.2l-7.8-6.9v-3.2
				h2.4l5.4,4.8h5.3v-4.3l-38.7-34.4H233.1z"/>
			<g class="st0">
				<path id="path-13_00000133527134392304019340000008680366987821547186_" class="st1" d="M243.1,269.1l-3.2,3h2.7l1.6-1.5h2
					l0.8,0.8h2l2.7,2.6h1.8l4.1,4.1h4.9l1.8-1.6h-3.8l-5.8-5.8h-2.1v0.1l-1.7-1.7L243.1,269.1z"/>
			</g>
			<path class="st2" d="M243.1,269.1l-3.2,3h2.7l1.6-1.5h2l0.8,0.8h2l2.7,2.6h1.8l4.1,4.1h4.9l1.8-1.6h-3.8l-5.8-5.8h-2.1v0.1
				l-1.7-1.7L243.1,269.1z"/>
			<g class="st0">
				<path id="path-15_00000126302946463231780280000012733249678141216903_" class="st1" d="M383.6,134.5l9.7,8.8h5.1l1.6-1.4h1.8
					l1.6-1.4h2.4l2.1-1.9v-4l-3.6-3.2h-4.1l-1.6,1.4v0.1h-7.9l-2.6-2.3v0.1L383.6,134.5z"/>
			</g>
			<path class="st2" d="M383.6,134.5l9.7,8.8h5.1l1.6-1.4h1.8l1.6-1.4h2.4l2.1-1.9v-4l-3.6-3.2h-4.1l-1.6,1.4v0.1h-7.9l-2.6-2.3v0.1
				L383.6,134.5z"/>
			<g class="st0">
				<path id="path-17_00000173155129095873037410000017724671247368937143_" class="st1" d="M677,324.3v3.2h-0.1l3.8,3.2v3.8
					l9.9,8.6v0.2l3.4-2.8v-5.1h-0.1l-5.5-4.8v-2.1L671.6,314l-3.3,2.8L677,324.3z"/>
			</g>
			<path class="st2" d="M677,324.3v3.2h-0.1l3.8,3.2v3.8l9.9,8.6v0.2l3.4-2.8v-5.1h-0.1l-5.5-4.8v-2.1L671.6,314l-3.3,2.8L677,324.3
				z"/>
			<g class="st0">
				<path id="path-19_00000088092809731249602270000005245364145811298995_" class="st1" d="M694.4,342.2l-1.7,1.3l2.3,2h2.3
					l1.8,1.4h5.8l2,1.7H717v-0.6l-1.9-1.7h-2.9l-1.9-1.6h-1.8l-1.9-1.6h-1.3v1.1h-4.6l-2.3-2L694.4,342.2z"/>
			</g>
			<path class="st2" d="M694.4,342.2l-1.7,1.3l2.3,2h2.3l1.8,1.4h5.8l2,1.7H717v-0.6l-1.9-1.7h-2.9l-1.9-1.6h-1.8l-1.9-1.6h-1.3v1.1
				h-4.6l-2.3-2L694.4,342.2z"/>
			<g class="st0">
				<path id="path-21_00000044164167150796015160000004886279059526289598_" class="st1" d="M741.6,303.7l-6.6,4.8v0.1l5.4,4.1
					l3.6-2.7v-4.6h-0.1L741.6,303.7z"/>
			</g>
			<path class="st2" d="M741.6,303.7l-6.6,4.8v0.1l5.4,4.1l3.6-2.7v-4.6h-0.1L741.6,303.7z"/>
			<g class="st0">
				<path id="path-23_00000039093157839659395150000011184594336162901134_" class="st1" d="M735.1,292.1h-1.8l-0.7,0.5h-0.1
					l5.2,4.9v2.4l-1,0.9l-3.8-3.6v4.2l3.8,3.4v0.1l3.6-3.2v-5L735.1,292.1z"/>
			</g>
			<path class="st2" d="M735.1,292.1h-1.8l-0.7,0.5h-0.1l5.2,4.9v2.4l-1,0.9l-3.8-3.6v4.2l3.8,3.4v0.1l3.6-3.2v-5L735.1,292.1z"/>
			<g class="st0">
				<path id="path-25_00000176024654021454910500000004585743769147452061_" class="st1" d="M732.4,280.6h-5.1v8.6l3.2,2.9v-4.9
					l1.9-1.6L732.4,280.6z"/>
			</g>
			<path class="st2" d="M732.4,280.6h-5.1v8.6l3.2,2.9v-4.9l1.9-1.6L732.4,280.6z"/>
			<g class="st0">
				<path id="path-27_00000093141442758285608360000014019954890895256762_" class="st1" d="M720.3,310.1L706,322.6l0.1-0.1h-4.4
					v4.6l-0.1,0.1l3,2.7v5.1h10.5v3.4l4.8-4.2V330l2.3-2v-2l2.6-2.2l-2.8-2.5v-2h-0.1l1.6-1.4V313l-3-2.8L720.3,310.1z"/>
			</g>
			<path class="st2" d="M720.3,310.1L706,322.6l0.1-0.1h-4.4v4.6l-0.1,0.1l3,2.7v5.1h10.5v3.4l4.8-4.2V330l2.3-2v-2l2.6-2.2
				l-2.8-2.5v-2h-0.1l1.6-1.4V313l-3-2.8L720.3,310.1z"/>
			<g class="st0">
				<path id="path-29_00000097482437335454286830000007368536427996241575_" class="st1" d="M724.9,297.3v3l-4,3.5v2.5l5.1-4.6v-3.4
					L724.9,297.3z"/>
			</g>
			<path class="st2" d="M724.9,297.3v3l-4,3.5v2.5l5.1-4.6v-3.4L724.9,297.3z"/>
			<g class="st0">
				<path id="path-31_00000038392580122932212930000003299617064513038727_" class="st1" d="M728.2,326.9v3l-2.2,1.8v7.4l3.6,3.2v-7
					l1.9,1.6v3.1h3.3v-3.3l-3.2-2.8l-0.1,0.1v-0.1l0.1,0.1l4.2-3.5h-3.4l-1.7,1.4l-1.7-1.5v-1.9l0.1-0.1l1.1-0.9h9.1l2.2-1.9h-11.5
					L728.2,326.9z"/>
			</g>
			<path class="st2" d="M728.2,326.9v3l-2.2,1.8v7.4l3.6,3.2v-7l1.9,1.6v3.1h3.3v-3.3l-3.2-2.8l-0.1,0.1v-0.1l0.1,0.1l4.2-3.5h-3.4
				l-1.7,1.4l-1.7-1.5v-1.9l0.1-0.1l1.1-0.9h9.1l2.2-1.9h-11.5L728.2,326.9z"/>
			<g class="st0">
				<path id="path-33_00000080917064099374781180000004165545319774226327_" class="st1" d="M772.2,230.1h-3.3v-0.1l-4.8,4.1h-4.2
					l-8.1,7v4h-0.1l2.3,2l9.3-7.9h3.8v0.1l2.8-2.5h6.2l2-1.7v-6.9l1.9-1.7v-6.9l-2.2-2l-2,1.7v6.4l-3.3,2.9h-0.1L772.2,230.1z"/>
			</g>
			<path class="st2" d="M772.2,230.1h-3.3v-0.1l-4.8,4.1h-4.2l-8.1,7v4h-0.1l2.3,2l9.3-7.9h3.8v0.1l2.8-2.5h6.2l2-1.7v-6.9l1.9-1.7
				v-6.9l-2.2-2l-2,1.7v6.4l-3.3,2.9h-0.1L772.2,230.1z"/>
			<g class="st0">
				<path id="path-35_00000127759827410175559100000008927523342811593132_" class="st1" d="M788.1,208.7h-2.3l-4.7-3.8l-1.4,1v4.4
					l-3.2,2.4h-1.8v2.1l2,1.6h0.9l2.9-2.3h4.6l5-3.9L788.1,208.7z"/>
			</g>
			<path class="st2" d="M788.1,208.7h-2.3l-4.7-3.8l-1.4,1v4.4l-3.2,2.4h-1.8v2.1l2,1.6h0.9l2.9-2.3h4.6l5-3.9L788.1,208.7z"/>
			<g class="st0">
				<path id="path-37_00000047755209256916231040000006233123053065960878_" class="st1" d="M782.6,198.6v-4.3l1.3-1.1h1.3l2.3,2
					V193l-1.6-1.5v-5l-1.6-1.4v-8.4l-3.1,2.6v24.3l2.8-2.3v-1.5L782.6,198.6L782.6,198.6z"/>
			</g>
			<path class="st2" d="M782.6,198.6v-4.3l1.3-1.1h1.3l2.3,2V193l-1.6-1.5v-5l-1.6-1.4v-8.4l-3.1,2.6v24.3l2.8-2.3v-1.5L782.6,198.6
				L782.6,198.6z"/>
			<g class="st0">
				<path id="path-39_00000110454146512688152620000016241201801810254011_" class="st1" d="M791.8,345.9v-0.1l2.6-2.1h0.1l-2.9-2.6
					v0.1h-2l-6.4-5.5h-3.8l-3-2.6h-3.8v-0.1l-2.5-2.1h-1.3l-5.2,4.3l-2.6-2.3v-3.4h-1.8l-1.6-1.3h-1.3l-2.1,1.8v0.9l2.1,1.8h2.7
					l1.3,1.2h-4.6l3.6,3.2h1.9l1.6,1.4h2.3l7.1,6.2h0.1v0.1l-0.1-0.1l-3.5,2.9h6.5l3.6,3.2h3.3v-0.1l4.2-3.6h0.1l6.3,5.5h6.4v-0.2
					L791.8,345.9z"/>
			</g>
			<path class="st2" d="M791.8,345.9v-0.1l2.6-2.1h0.1l-2.9-2.6v0.1h-2l-6.4-5.5h-3.8l-3-2.6h-3.8v-0.1l-2.5-2.1h-1.3l-5.2,4.3
				l-2.6-2.3v-3.4h-1.8l-1.6-1.3h-1.3l-2.1,1.8v0.9l2.1,1.8h2.7l1.3,1.2h-4.6l3.6,3.2h1.9l1.6,1.4h2.3l7.1,6.2h0.1v0.1l-0.1-0.1
				l-3.5,2.9h6.5l3.6,3.2h3.3v-0.1l4.2-3.6h0.1l6.3,5.5h6.4v-0.2L791.8,345.9z"/>
			<g class="st0">
				<path id="path-41_00000164501423853085537520000013311055057240694188_" class="st1" d="M721.9,379l-11.3,9.5v10.3l4.3,3.8v4.8
					l2.1,1.9v4.8l-2.2,1.9l4.3,3.8h0.1l2.2-1.9h6.7l2.3-1.9h5.5l5.8-4.9h16.4l7.7,6.8l2.1-1.7l-0.1,0.1l6,5.2v3.5l4.9,4.2h15.7v0.1
					l4-3.4v-4.9l2.6-2.2v-4.2l4.4-3.6v-5.8l1.1-1v-11.9h0.1L790.2,378v-5.5l-2.4-2.1v-4.2l-4.9-4.2V357l-2.3-2l-2.4,2v14.5l-1.2,1
					h-1.9l-4.2-3.6h-3.3l-3.8-3.4l2.4-2h0.1v-3.1l-3.9-3.4h-4.9l-7.7,6.4h-4.7L726.5,379H721.9z"/>
			</g>
			<path class="st2" d="M721.9,379l-11.3,9.5v10.3l4.3,3.8v4.8l2.1,1.9v4.8l-2.2,1.9l4.3,3.8h0.1l2.2-1.9h6.7l2.3-1.9h5.5l5.8-4.9
				h16.4l7.7,6.8l2.1-1.7l-0.1,0.1l6,5.2v3.5l4.9,4.2h15.7v0.1l4-3.4v-4.9l2.6-2.2v-4.2l4.4-3.6v-5.8l1.1-1v-11.9h0.1L790.2,378
				v-5.5l-2.4-2.1v-4.2l-4.9-4.2V357l-2.3-2l-2.4,2v14.5l-1.2,1h-1.9l-4.2-3.6h-3.3l-3.8-3.4l2.4-2h0.1v-3.1l-3.9-3.4h-4.9l-7.7,6.4
				h-4.7L726.5,379H721.9z"/>
			<g class="st0">
				<path id="path-43_00000030464244391314438570000007520298685944322729_" class="st1" d="M851.8,438.4l-11.7,10.2v3.2l3.7,3.3
					l6.1-5.4v-3.4l6.9-6v-3.2l-2.8-2.6h-2.1L851.8,438.4z"/>
			</g>
			<path class="st2" d="M851.8,438.4l-11.7,10.2v3.2l3.7,3.3l6.1-5.4v-3.4l6.9-6v-3.2l-2.8-2.6h-2.1L851.8,438.4z"/>
			<g class="st0">
				<path id="path-45_00000165955676700455788230000002148256491547017349_" class="st1" d="M858.5,434.2l-0.9,0.8v2.1h3.3v-3
					l1.9-1.5l-0.1-1.5l3.1-2.7v-3l-1,0.9h-3.4l-4.5-4.2v-3h-2.6v3.2l4,3.6v1.3l-2.8,2.4v1.6L858.5,434.2z"/>
			</g>
			<path class="st2" d="M858.5,434.2l-0.9,0.8v2.1h3.3v-3l1.9-1.5l-0.1-1.5l3.1-2.7v-3l-1,0.9h-3.4l-4.5-4.2v-3h-2.6v3.2l4,3.6v1.3
				l-2.8,2.4v1.6L858.5,434.2z"/>
			<g class="st0">
				<path id="path-47_00000150782788826080513220000010870050650389834388_" class="st1" d="M473,228l-0.9,0.7H472l3.8,3.2h2.7V228
					H473z"/>
			</g>
			<path class="st2" d="M473,228l-0.9,0.7H472l3.8,3.2h2.7V228H473z"/>
			<g class="st0">
				<path id="path-49_00000086691529314770014220000011403735264979917752_" class="st1" d="M893.6,131l-3.6-3.1h-6.7l-10.7-9.3
					h-6.7l-4.3-3.8h-13.8l-3.6,3.1l-2.6-2.2h-15.8l-5.8-5.1h-16.3l-8.6-7.5h-18.6l-5.4,4.6h-17.9l-11.6-10.2h-34.9l-5.4,4.6H693
					l18-15.1l-5-4.6h-11.4l-4.9-4.6l-9,7.6h-17.5l-13.3,11.1l-14.8,0.1l-13.3,11.1l-8.3,0.1v-6.6h-5.6l-7.8,6.5v5l4.6,4v7.5
					l-9.1-8.1H586l-0.1,3.3h-18.8l-7.6,6.4h-4.5l-4.4-3.9h-3.1v6.1L545,130h-2.9l-9.1,7.6l-7.1-6.1h9.3l4.5-3.8l0.1-2l-4.9-4.3h-3.5
					l-4.9-4.4h-4.9l-5-4.4h-22.7l-21.6,18.2v2.8l-17.7,14.9v11.1l2.9,2.5h4.3l5-4.3h1.9v5l4.3,3.8l0.1,4.8h3.2l5.9-5v-6.4l5.1-4.3
					l-3.5-2.8v-6.4l8.8-7.3v-2.8l3.7-3.1h6.4v3.1l-9.2,7.7v7.3l3.3,2.9l6.4,0.2v2.2l-10.9,9.1l0.1,7.3l-2.5,2h-3.6V174h-3l-3.3,2.8
					h-3.9l-1.1-1h-2.6l-1.2,1l-2.4-0.1l-2.9-2.6v-3l1.2-1v-4.8h-4l-1.1,1.1v7.2l1.4,1.2v3l-1.2,1h-5.2l-10.9,9.1v3.1h-3.4l-3.4,2.8
					h-4.8l-2.4,2l2.6,2.4h2.4v2.1l2.4,2.2l0.1,6.9l-2.4,2H430l-1.8-1.4h-5.5l-2.9,2.5v1.2l1.5,1.4v5.3l-1.1,1l0.1,4.3l1.2,1
					l-0.1,2.9h4.5l1.6,1.5l0.1,1.3l1.9,0.1l1.7-1.4h4.8l3-2.5h1.5V223l3.1-2.6v-1.6l3.1-2.6h2.9v-3.4l2.1-1.8h2.9l1.1,1h1.5l4.4-3.7
					h2.9l1.9,1.6v1.9l6.2,5.5l3.9,2.9l3.4,2.4v3l-1.2,1l1.8,0.6l1.2-1v-1.4l1.6-1.3l-1.7-1.6v-1l1.9-0.8l1.8,1.5l1.1-1l-2.4-2.2
					l-13-10.2v-3.5l1.6-1.4h2.1l13.9,12.8v4.3l3.4,3.2v4.4l3.4,3.1l1.9-0.9v-3.3l1-2.9l-2.4-2.2v-1.9h3l1.9-1.6h1.9l1.6,1.4l4.6-3.9
					v-5l0.9-0.8v-3l1-0.8h1.5v-2.1l4-3.4l1.6,1.4h6.3l3.2-1.5h2.2l2-1.7h4.1l-2,1.7h-2.1v2.2l-2.1,1.6h-4.1l-1.6-1.4l-1.3-0.9
					l-1.2,0.9l-1.8,1.4l3.6,3.1l2.2-1.8l2.5-1.4l0.5,1.4l2.3,1.2h2.4l7.7,6.8v1.9l-1.8,1.5h-10.6l-3-2.6l-5.6,0.1l-3.1,2.6h-6.9
					l-4.5,3.8v4.8l7.1,6.2h15v8.8l-7.7,6.4l-3.5-2.9h-15.4l-3.6-3.1h-3.9l-5.9,5l-5.9-0.1l-5.6-4.9h-6l-4.6-4l3.1-2.6v-2.6l-1.6-1.3
					h-21.7l-3.1,2.6h-13.1l-3.1,2.5v1.6l-7.2,6.1v5.8L406.8,260v4.9l-5.7,4.8v3.1l1.5,1.4l-0.1,13l-2.8,2.4l1.9,1.7v4.9l23.2,20.4
					l2.5-2.2h17.7l4.9-4.1l15.4,13.5v9.9l4.8,4.3l0.1,4.4l2.1,1.9v7.8l2.1,1.9v3.6l-2.4,2.1v5.1l-2.4,2v7.2l2.9,2.5v3.1l3.1,2.8v6.5
					l2.2,2v6.6l6.6,5.8v10l5.1,4.5l1.6-1.5h10.1l1.6-1.3h3.3l9.4-7.8v-3.5l4.7-4V394l6-5.1v-12.3l13.4-11.3l-0.1-11.4l-3.4-3v-11.4
					l0.9-3.6l3.1-2.6v-2.8l19.1-16v-2.8l4.9-4.2v-7.3h-13.8l-14.4-12.6v-4.6l-5.1-4.6v-7l-3.6-3.1V265l-3.5-3.1v-5.2h3.8l3.6,3.2v6
					l3.7,3.1v4.1l10.3,9v11.8h6.7l5.8-4.9h6.7l5.8-4.9h3.4l7.4-6.2v-2.7l4.2-3.6v-1.3l-10.1-9l-4.9,4h-4.6l-4.6-4.1v-3.3l-4.6-4.1
					V251l2.7-2.3l5,4.3v1.9l4.5,4h5.2l1.9-1.6h2.4v1.8l3.1,2.7h18.5l8.9,7.9h-2.5l5.4,4.8h4.1v9.5l2.1,1.8v3.7l2.1,1.8v3.3l2,1.8
					v2.1l1.4,1.1v3.5l3.6,3.3l5.9-5.7v-12.9l19.3-16.2l8-0.1l7.3,6.5v8.1h3.2l2.9-2.5v3.6l2.1,1.8v3.5l1.4,1.3v13l3.4,3v3l1.7,1.5
					v2.9l8.9,7.8v-3.4L689,320l-0.1-6.4l-4.9-4.2h-1.6l-1.1-1l-0.1-3.1l-2.2-1.8v-7.5l2.3-2l10.2,7.8v3.7l10.1-8.3v-8l-7.6-6.6v-4.5
					l7.7-6.5h9.6l3.6-3.1h3l12.8-10.8v-16.1l-5.1-4.4v-1.1l8.6-7.2h-8.3l-3.8-3.3l8.6-7.2l4.1,3.6h5.5v5.2l3.2,2.8v7.3h2.7l4.6-3.9
					v-3.6l-2.3-2v-2.3l-3.2-2.8l5.4-4.6l0.1-2l4.6-3.8h5.5l10.7-9.1l-0.1-3.8l6.1-5.1v-15.1l-4.1-3.6h-5.5l-2.6-2.2l19-16h26.3
					l10.7-9h11.2v3.4l-19.1,15.8V181l1.3,1.1v5.5l8.9-7.5v-4.5l5.8-4.9l0.2-11l7.3-6.2H852l8.9-7.5h8.7v-4.7l-3.8-3.1v-2h4.6
					l3.6-3.1h5.6l5.7,5.1L893.6,131z"/>
			</g>
			<path class="st2" d="M893.6,131l-3.6-3.1h-6.7l-10.7-9.3h-6.7l-4.3-3.8h-13.8l-3.6,3.1l-2.6-2.2h-15.8l-5.8-5.1h-16.3l-8.6-7.5
				h-18.6l-5.4,4.6h-17.9l-11.6-10.2h-34.9l-5.4,4.6H693l18-15.1l-5-4.6h-11.4l-4.9-4.6l-9,7.6h-17.5l-13.3,11.1l-14.8,0.1
				l-13.3,11.1l-8.3,0.1v-6.6h-5.6l-7.8,6.5v5l4.6,4v7.5l-9.1-8.1H586l-0.1,3.3h-18.8l-7.6,6.4h-4.5l-4.4-3.9h-3.1v6.1L545,130h-2.9
				l-9.1,7.6l-7.1-6.1h9.3l4.5-3.8l0.1-2l-4.9-4.3h-3.5l-4.9-4.4h-4.9l-5-4.4h-22.7l-21.6,18.2v2.8l-17.7,14.9v11.1l2.9,2.5h4.3
				l5-4.3h1.9v5l4.3,3.8l0.1,4.8h3.2l5.9-5v-6.4l5.1-4.3l-3.5-2.8v-6.4l8.8-7.3v-2.8l3.7-3.1h6.4v3.1l-9.2,7.7v7.3l3.3,2.9l6.4,0.2
				v2.2l-10.9,9.1l0.1,7.3l-2.5,2h-3.6V174h-3l-3.3,2.8h-3.9l-1.1-1h-2.6l-1.2,1l-2.4-0.1l-2.9-2.6v-3l1.2-1v-4.8h-4l-1.1,1.1v7.2
				l1.4,1.2v3l-1.2,1h-5.2l-10.9,9.1v3.1h-3.4l-3.4,2.8h-4.8l-2.4,2l2.6,2.4h2.4v2.1l2.4,2.2l0.1,6.9l-2.4,2H430l-1.8-1.4h-5.5
				l-2.9,2.5v1.2l1.5,1.4v5.3l-1.1,1l0.1,4.3l1.2,1l-0.1,2.9h4.5l1.6,1.5l0.1,1.3l1.9,0.1l1.7-1.4h4.8l3-2.5h1.5V223l3.1-2.6v-1.6
				l3.1-2.6h2.9v-3.4l2.1-1.8h2.9l1.1,1h1.5l4.4-3.7h2.9l1.9,1.6v1.9l6.2,5.5l3.9,2.9l3.4,2.4v3l-1.2,1l1.8,0.6l1.2-1v-1.4l1.6-1.3
				l-1.7-1.6v-1l1.9-0.8l1.8,1.5l1.1-1l-2.4-2.2l-13-10.2v-3.5l1.6-1.4h2.1l13.9,12.8v4.3l3.4,3.2v4.4l3.4,3.1l1.9-0.9v-3.3l1-2.9
				l-2.4-2.2v-1.9h3l1.9-1.6h1.9l1.6,1.4l4.6-3.9v-5l0.9-0.8v-3l1-0.8h1.5v-2.1l4-3.4l1.6,1.4h6.3l3.2-1.5h2.2l2-1.7h4.1l-2,1.7
				h-2.1v2.2l-2.1,1.6h-4.1l-1.6-1.4l-1.3-0.9l-1.2,0.9l-1.8,1.4l3.6,3.1l2.2-1.8l2.5-1.4l0.5,1.4l2.3,1.2h2.4l7.7,6.8v1.9l-1.8,1.5
				h-10.6l-3-2.6l-5.6,0.1l-3.1,2.6h-6.9l-4.5,3.8v4.8l7.1,6.2h15v8.8l-7.7,6.4l-3.5-2.9h-15.4l-3.6-3.1h-3.9l-5.9,5l-5.9-0.1
				l-5.6-4.9h-6l-4.6-4l3.1-2.6v-2.6l-1.6-1.3h-21.7l-3.1,2.6h-13.1l-3.1,2.5v1.6l-7.2,6.1v5.8L406.8,260v4.9l-5.7,4.8v3.1l1.5,1.4
				l-0.1,13l-2.8,2.4l1.9,1.7v4.9l23.2,20.4l2.5-2.2h17.7l4.9-4.1l15.4,13.5v9.9l4.8,4.3l0.1,4.4l2.1,1.9v7.8l2.1,1.9v3.6l-2.4,2.1
				v5.1l-2.4,2v7.2l2.9,2.5v3.1l3.1,2.8v6.5l2.2,2v6.6l6.6,5.8v10l5.1,4.5l1.6-1.5h10.1l1.6-1.3h3.3l9.4-7.8v-3.5l4.7-4V394l6-5.1
				v-12.3l13.4-11.3l-0.1-11.4l-3.4-3v-11.4l0.9-3.6l3.1-2.6v-2.8l19.1-16v-2.8l4.9-4.2v-7.3h-13.8l-14.4-12.6v-4.6l-5.1-4.6v-7
				l-3.6-3.1V265l-3.5-3.1v-5.2h3.8l3.6,3.2v6l3.7,3.1v4.1l10.3,9v11.8h6.7l5.8-4.9h6.7l5.8-4.9h3.4l7.4-6.2v-2.7l4.2-3.6v-1.3
				l-10.1-9l-4.9,4h-4.6l-4.6-4.1v-3.3l-4.6-4.1V251l2.7-2.3l5,4.3v1.9l4.5,4h5.2l1.9-1.6h2.4v1.8l3.1,2.7h18.5l8.9,7.9h-2.5
				l5.4,4.8h4.1v9.5l2.1,1.8v3.7l2.1,1.8v3.3l2,1.8v2.1l1.4,1.1v3.5l3.6,3.3l5.9-5.7v-12.9l19.3-16.2l8-0.1l7.3,6.5v8.1h3.2l2.9-2.5
				v3.6l2.1,1.8v3.5l1.4,1.3v13l3.4,3v3l1.7,1.5v2.9l8.9,7.8v-3.4L689,320l-0.1-6.4l-4.9-4.2h-1.6l-1.1-1l-0.1-3.1l-2.2-1.8v-7.5
				l2.3-2l10.2,7.8v3.7l10.1-8.3v-8l-7.6-6.6v-4.5l7.7-6.5h9.6l3.6-3.1h3l12.8-10.8v-16.1l-5.1-4.4v-1.1l8.6-7.2h-8.3l-3.8-3.3
				l8.6-7.2l4.1,3.6h5.5v5.2l3.2,2.8v7.3h2.7l4.6-3.9v-3.6l-2.3-2v-2.3l-3.2-2.8l5.4-4.6l0.1-2l4.6-3.8h5.5l10.7-9.1l-0.1-3.8
				l6.1-5.1v-15.1l-4.1-3.6h-5.5l-2.6-2.2l19-16h26.3l10.7-9h11.2v3.4l-19.1,15.8V181l1.3,1.1v5.5l8.9-7.5v-4.5l5.8-4.9l0.2-11
				l7.3-6.2H852l8.9-7.5h8.7v-4.7l-3.8-3.1v-2h4.6l3.6-3.1h5.6l5.7,5.1L893.6,131z"/>
			<g class="st0">
				<path id="path-51_00000093896755588635987090000013609685387604834227_" class="st1" d="M442.6,186.3l2.5-2.1v-2.7h-3.3l1-0.9
					l-1.6-1.4l0.8-0.7h-0.1l-3.4-3.1V174l-4-3.6l2.5-2.2v-3.6h-5l3.8-3.3h-5.3l-2,1.7v8.2h2.3v2.3l-1.4,1.2h4.8l-1.6,1.4l1.7,1.6
					v2.4h-2.1v0.1l-1.7,1.4l1.7,1.4h-0.1l-1.9,1.6h-0.9v1.1h2.4l0.7,0.5h2.2v1h-2.2l-4,3.5h2.9l0.9-0.8h1.1l1-0.8h5l0.9-0.7h3.5
					l1.2-1v-1.1L442.6,186.3z"/>
			</g>
			<path class="st2" d="M442.6,186.3l2.5-2.1v-2.7h-3.3l1-0.9l-1.6-1.4l0.8-0.7h-0.1l-3.4-3.1V174l-4-3.6l2.5-2.2v-3.6h-5l3.8-3.3
				h-5.3l-2,1.7v8.2h2.3v2.3l-1.4,1.2h4.8l-1.6,1.4l1.7,1.6v2.4h-2.1v0.1l-1.7,1.4l1.7,1.4h-0.1l-1.9,1.6h-0.9v1.1h2.4l0.7,0.5h2.2
				v1h-2.2l-4,3.5h2.9l0.9-0.8h1.1l1-0.8h5l0.9-0.7h3.5l1.2-1v-1.1L442.6,186.3z"/>
			<g class="st0">
				<path id="path-53_00000119093282033500446010000017478840788114930334_" class="st1" d="M429.7,176.6l-4-3.7l-5.1,4.5h-2.4v9.7
					h3.9l2.7-2.3h3.1v-6.5L429.7,176.6z"/>
			</g>
			<path class="st2" d="M429.7,176.6l-4-3.7l-5.1,4.5h-2.4v9.7h3.9l2.7-2.3h3.1v-6.5L429.7,176.6z"/>
			<g class="st0">
				<path id="path-55_00000017516945793947382500000005022196261697947270_" class="st1" d="M389.8,74.2l22-18.7h-23.1v-5.4
					l-7.7-6.8h-33.8v0.2l-8.3,7h-28.4l-6,5.1h-12.2l-8.2,7V68H284l-3.6,3.1H272l-5,4.2h-0.1L279,86h18.2l12.5,11.1V112l6.7,5.9v24.3
					h-0.2l15.6,13.9l-0.1,0.1h6.5v-10.5l26.4-22.4h12.3l12.8-10.9L389.8,74.2z"/>
			</g>
			<path class="st2" d="M389.8,74.2l22-18.7h-23.1v-5.4l-7.7-6.8h-33.8v0.2l-8.3,7h-28.4l-6,5.1h-12.2l-8.2,7V68H284l-3.6,3.1H272
				l-5,4.2h-0.1L279,86h18.2l12.5,11.1V112l6.7,5.9v24.3h-0.2l15.6,13.9l-0.1,0.1h6.5v-10.5l26.4-22.4h12.3l12.8-10.9L389.8,74.2z"
				/>
			<g class="st0">
				<path id="path-57_00000057842051367256798660000013121566856725115821_" class="st1" d="M189.9,85.8h-8.7l-7.1-6.6h-16.6
					l-7.4,6.6v1.9h11l7.3,6.8h9.1v0.1l3.4-3h9L189.9,85.8z"/>
			</g>
			<path class="st2" d="M189.9,85.8h-8.7l-7.1-6.6h-16.6l-7.4,6.6v1.9h11l7.3,6.8h9.1v0.1l3.4-3h9L189.9,85.8z"/>
			<g class="st0">
				<path id="path-59_00000160907813906851720840000004762492554131640992_" class="st1" d="M151.4,93.3l-7.4,6.1h-0.2v5.5l4.3,3.7
					h11.3l13.8,11.7h8.5l3.4-2.8h13.8v-8.8l-9.1-7.7h-18.4l-8.9-7.6L151.4,93.3z"/>
			</g>
			<path class="st2" d="M151.4,93.3l-7.4,6.1h-0.2v5.5l4.3,3.7h11.3l13.8,11.7h8.5l3.4-2.8h13.8v-8.8l-9.1-7.7h-18.4l-8.9-7.6
				L151.4,93.3z"/>
			<g class="st0">
				<path id="path-61_00000088814049885908640790000007183363406803310216_" class="st1" d="M255.8,322.9l-8.2,6.8v12.5l8.5,7.4v8.2
					l17.9,15.7V396H274l-3.1,2.5v21.4l-6.1,5.1v25.4l-1.8,1.5v19.8l10.3,9h12l-8.3-7.2v-7.4l3.4-2.8v-1.9l4.7-3.8V456l-3.7-3.2V451
					l4.6-3.8v-3.1l3.5-2.9h-0.1l-2.7-2.4v-3h6.8v-6h8l5.7-4.8v-4.2l-3.4-3h6.8l8-6.7v-4.5l7.5-6.2v-7.5l8-6.6h6.9l5.3-4.5v-6.3
					l3.7-3.1v-12.5l8.1-6.9v-12.5l-9.5-8.4H333l-5.2-4.5h-4.6v-7.2l-9.5-8.4h-7.3l-15.5-13.5h-23.8l-11.3,9.4"/>
			</g>
			<path class="st2" d="M255.8,322.9l-8.2,6.8v12.5l8.5,7.4v8.2l17.9,15.7V396H274l-3.1,2.5v21.4l-6.1,5.1v25.4l-1.8,1.5v19.8
				l10.3,9h12l-8.3-7.2v-7.4l3.4-2.8v-1.9l4.7-3.8V456l-3.7-3.2V451l4.6-3.8v-3.1l3.5-2.9h-0.1l-2.7-2.4v-3h6.8v-6h8l5.7-4.8v-4.2
				l-3.4-3h6.8l8-6.7v-4.5l7.5-6.2v-7.5l8-6.6h6.9l5.3-4.5v-6.3l3.7-3.1v-12.5l8.1-6.9v-12.5l-9.5-8.4H333l-5.2-4.5h-4.6v-7.2
				l-9.5-8.4h-7.3l-15.5-13.5h-23.8l-11.3,9.4"/>
		</g>
	</g>
</g>
<g id="vernetzung_00000087399578771982465140000000115173283320229251_">
	<path id="Line_00000175291556936164094130000002277745264705895047_" class="st3" d="M196.4,276.6l437.6-10.9 M443.4,194.6
		l33.3-5.2 M458,201.8l-246.7,18.1 M431.6,218.7l201.1,47 M419.3,225.3l14.7-49.8 M434,175.4l27.5-33.4 M462.2,141.3l21.5,8.2
		 M482.3,148.1l166.5,8.2 M309.2,349L475,219.2 M309.2,349l110.1-121.6 M266.3,417.4l-56.4-196.1 M428.5,246.4l29.5-44.6
		 M446.7,205.4l69,17.3 M485.4,198.9l-3.2-50.8 M476.7,189.4l31.3-47.3 M467.9,183.8l-6.3-41.7 M428.5,246.4l88-23 M693.7,327.9
		l43.3-58.5 M515.8,223.4l170.3,95.5 M482.4,148.1L434,176.8 M445,191l15.9-49.7 M419.2,227.4l-222.8,49.2 M434,175.4l12.4,17.3
		 M419.3,226l25.7-35 M475,217.8l-7.1-15 M475.6,219.2v-27.9 M475.6,219.2l-18-18.5 M689.1,239.7l-56.4,26 M475,219.2L633.4,265
		 M476.6,188.1l5.7-41.4 M475.6,185l213.5,54.7 M634.1,264.3l13.4-108 M482.5,149.4l153,116.2 M477.1,219.9l-30.6-14.2 M446.4,205.7
		L419.3,226 M262.3,360l4,54.5 M262.3,359.3l-12-28.8 M310.1,348.5l-59.2-18 M427.8,247.1l-145.1,64 M514.8,223.2l-39.8-5.5
		 M262.2,315.4l21.1-4.3 M262.2,360l-1.9-43.9 M250.2,329.8l-52.1-53.6 M419.3,226l-258.5-64.7 M417.9,227.4l269.8,12.3
		 M208.5,219.2l252.4-76.5 M157.5,160.4l51,60.1 M209.8,220.6L197.8,278 M198.1,276.3L310.5,349 M310.5,349l-99.2-128 M197.8,275.2
		l68.5,143.5 M160.7,159.2L434,175.4 M687.7,239.7l-38.9-83.4 M648.8,156.3L475,217.7 M209.8,220.6l208.1,6.8 M310.5,347.7l323.5-82
		 M761.6,394.1l12.1-161.3 M745.5,232.5h28.2 M737.4,268.4l8-32.8 M475.6,219.2l22.8,190 M685.1,293l-36.2-136.7 M687.8,320.3
		l-269.8-92.9 M685.2,320.1l61-85.9 M685.9,320.1l50.2-50.3 M687.8,239.7l-204.1-90.2 M761.6,395.5l-75.7-75.4 M634,264.3
		L498.5,409.2 M498.5,409.2L420,227.4 M761.6,395.5L196.4,276.6 M685.2,320.1l-374.7,27.6 M266.5,416.8l16.2-105.7 M418.2,176.8
		l15.9-0.9 M416.7,177.3l15.3,41 M427.8,245.7L432,219 M508.1,142.1l140.2,13.7 M508,142.1l-22.5,56.8 M517.2,222.6l-16.9-16.5
		 M457.3,188.1l4.2-45.3 M467.9,184.5l-33.1-8.6 M647.5,155l126.2,76.5 M309.2,349l189.3,60.1 M262.2,360l47-11.6 M250.3,330.5
		l11.3-13.7 M251,330.5l-93-169.7 M283.4,311.1l132.4-132.3 M475.6,219.2l-44.4-0.9 M501,206.1l-68.9,11.8 M261.5,360l21.1-48.9
		 M761.7,393.4l-24.2-123.6 M689.1,238.3l49.7,31.4 M632.8,264.3l112.8-30.1 M773.7,232.9l-36.2,36.9 M737.5,269.8L685.1,293
		 M634.1,265.7l53.7,54.7 M264.9,416l233.6-6.8 M208.5,219.2l290,190 M685.1,291.6l2.7,30.1 M746.8,234.2L481,148.1 M685,291.6
		l4-51.9 M737.3,269.8L634,265.7 M745.4,234.2L683.7,293 M762.9,395.5L685.1,293 M745.5,234.2l-57.7,5.5 M485.2,198.6l147.6,65.7
		 M446.1,204.7l-28.2-26.7 M444.7,191.7l-283.9-32 M461.6,140.5H508 M688.4,239.2L763,395.2 M264.9,416l17.4,30.8 M310.1,349.2
		l-27.9,97.6"/>
	<path class="st3" d="M691.9,329.1l-408.5-18 M160,160.4l286.8,45 M446.1,206.1l-17.6,40.3 M418.5,175.7l42.4-33.6 M446.1,193.1
		l11.3,7.9 M445.9,205.4v-12.9 M498,205.3l-30.1-3.7 M468.6,184.5l48.6,38.8 M458,201.1l10.6-16.5 M467.9,201.6l-10.4-15.2
		 M500.3,205.4l7.8-61.9 M262.2,316.1L210.7,221 M428.5,246.3l256.4,45.3 M265,416.8l251.5-194.2 M482.7,147.8l26.1-5 M467.9,183.8
		l179.6-27.3 M516.5,222.7l131.7-66.2"/>
</g>
<g id="Locations_00000003099870761407434040000010096866919132057488_">
	
		<ellipse id="Südafrika_00000041987465147340613780000004056227902874126520_" class="st5" cx="605.5" cy="265.7" rx="4.6" ry="4.7"/>
</g>
<g id="Locations_00000004536282094927134180000013639141175701321393_">
	
		<ellipse id="Südafrika_00000052103579175530815490000002628682821127948168_" class="st5" cx="475.3" cy="220.3" rx="4.6" ry="4.7"/>
</g>
<ellipse class="st6" cx="106.6" cy="447" rx="48" ry="9.3"/>
<g>
	<g>
		<path class="st4" d="M105,299.8c-30.1,0-54.6,24.5-54.6,54.6c0,11.5,3.6,22.5,10.3,31.8l1.4,2l39.2,55.3c0.9,1.1,2.2,1.8,3.6,1.8
			c1.4,0,2.8-0.7,3.6-1.8l38.7-54.7l1.9-2.6c6.7-9.4,10.3-20.4,10.3-31.8C159.6,324.3,135.1,299.8,105,299.8L105,299.8z M105,372.6
			c-10,0-18.2-8.2-18.2-18.2c0-10,8.2-18.2,18.2-18.2c10,0,18.2,8.2,18.2,18.2C123.2,364.4,115,372.6,105,372.6L105,372.6z
			 M105,372.6"/>
	</g>
	<circle class="st7" cx="105" cy="356" r="36.9"/>
	<g>
		<g>
			<path class="st4" d="M75.3,352.9c-0.4,0-0.8-0.1-1.1-0.4c-0.3-0.3-0.4-0.6-0.4-1.1h8.9c0,0.4-0.1,0.8-0.4,1.1
				c-0.3,0.3-0.6,0.4-1,0.4H75.3z M75.3,355.9c-0.4,0-0.8-0.1-1.1-0.4c-0.3-0.3-0.4-0.6-0.4-1.1h8.9c0,0.4-0.1,0.8-0.4,1.1
				c-0.3,0.3-0.6,0.4-1,0.4H75.3z M75.3,358.8c-0.4,0-0.8-0.1-1.1-0.4c-0.3-0.3-0.4-0.6-0.4-1.1h8.9c0,0.4-0.1,0.8-0.4,1.1
				c-0.3,0.3-0.6,0.4-1,0.4H75.3z"/>
			<path class="st4" d="M85.7,358.8v-5.9l-1.5-1.5h2.2l5.2,5.2v-5.2h1.5v7.4h-1.5l-4.5-4.5v4.5H85.7z"/>
			<path class="st4" d="M94.6,358.8v-4.5h1.5v3h5.2c0.2,0,0.4-0.1,0.5-0.2c0.1-0.1,0.2-0.3,0.2-0.5v-3.7h-5.9
				c-0.4,0-0.8-0.1-1.1-0.4c-0.3-0.3-0.4-0.6-0.4-1.1h8.9v5.9c0,0.4-0.1,0.8-0.4,1.1c-0.3,0.3-0.6,0.4-1,0.4H94.6z"/>
			<path class="st4" d="M105,358.8v-7.4h1.5v5.9h7.4c0,0.4-0.1,0.8-0.4,1.1c-0.3,0.3-0.6,0.4-1,0.4H105z"/>
			<path class="st4" d="M116.8,352.9c-0.4,0-0.8-0.1-1.1-0.4c-0.3-0.3-0.4-0.6-0.4-1.1h8.9c0,0.4-0.1,0.8-0.4,1.1
				c-0.3,0.3-0.6,0.4-1,0.4H116.8z M115.4,358.8v-4.5h1.5v3h5.9v-3h1.5v4.5H115.4z"/>
			<path class="st4" d="M125.8,358.8c0-0.4,0.1-0.8,0.4-1c0.3-0.3,0.6-0.4,1.1-0.4h5.9v-1.5h-7.4v-4.5h8.9c0,0.4-0.1,0.8-0.4,1.1
				c-0.3,0.3-0.6,0.4-1,0.4h-5.9v1.5h7.4v4.5H125.8z"/>
		</g>
		<g>
			<text transform="matrix(1 0 0 1 135.1032 350.9931)" class="st4 st8 st9">R</text>
			<ellipse class="st10" cx="135.5" cy="350.6" rx="0.7" ry="0.7"/>
		</g>
	</g>
</g>
</svg>
